<svg height="34.505" viewBox="0 0 285.576 34.505" width="285.576" xmlns="http://www.w3.org/2000/svg"><g fill="#f26882"><path d="m275.57577515 33.46627808h-265.57578087c-4.96260691 0-8.99999958-4.03739548-8.99999958-9.00000191v-14.46628571c0-4.96260738 4.03739267-9 8.99999958-9h265.57578087c4.96261596 0 9 4.03739262 9 9v14.46628571c0 4.96260643-4.03738404 9.00000191-9 9.00000191z"/><path d="m10 2.00001907c-4.41122437 0-8 3.58876801-8 7.9999981v14.46623039c0 4.41123199 3.58877563 8 8 8h265.57577515c4.41122436 0 8-3.58876801 8-8v-14.46623039c0-4.41123009-3.58877564-7.9999981-8-7.9999981zm0-2h265.57577515c5.52285766 0 10 4.47711373 10 9.9999981v14.46623039c0 5.52288627-4.47714234 10-10 10h-265.57577515c-5.52288818 0-10-4.47711373-10-10v-14.46623039c0-5.52288437 4.47711182-9.9999981 10-9.9999981z" fill="#111"/></g><g fill="#fff" transform="translate(.315 .131)"><path d="m140.6307373 33.37439728h-131.58484172c-4.43652678 0-8.04589057-3.60936165-8.04589057-8.0458889v-16.28261853c0-4.43652772 3.60936379-8.04589122 8.04589057-8.04589122h131.58484172z"/><path d="m9.04588318 2c-3.88511658 0-7.04589844 3.16077805-7.04589844 7.04589844v16.2826004c0 3.88512039 3.16078186 7.04589844 7.04589844 7.04589844h130.58483887v-30.37439728zm0-2h132.58483887v34.37439728h-132.58483887c-4.99589539 0-9.04589844-4.04997826-9.04589844-9.04589844v-16.2826004c0-4.99592018 4.05000305-9.04589844 9.04589844-9.04589844z"/></g></svg>