<svg height="34.505" viewBox="0 0 285.576 34.505" width="285.576" xmlns="http://www.w3.org/2000/svg"><g fill="#fff" stroke="#111" stroke-miterlimit="10" stroke-width="2"><rect height="34.466" rx="10" stroke="none" width="285.576"/><rect fill="none" height="32.466" rx="9" width="283.576" x="1" y="1"/></g><g fill="#f26882" transform="translate(.315 .131)"><path d="m140.6307373 33.37439728h-131.58484172c-4.43652678 0-8.04589057-3.60936165-8.04589057-8.0458889v-16.28261853c0-4.43652772 3.60936379-8.04589122 8.04589057-8.04589122h131.58484172z"/><path d="m9.04588318 2c-3.88511658 0-7.04589844 3.16077805-7.04589844 7.04589844v16.2826004c0 3.88512039 3.16078186 7.04589844 7.04589844 7.04589844h130.58483887v-30.37439728zm0-2h132.58483887v34.37439728h-132.58483887c-4.99589539 0-9.04589844-4.04997826-9.04589844-9.04589844v-16.2826004c0-4.99592018 4.05000305-9.04589844 9.04589844-9.04589844z"/></g></svg>