<svg xmlns="http://www.w3.org/2000/svg" width="285.576" height="34.505" viewBox="0 0 285.576 34.505"><defs><style>.a{fill:#fff;stroke:#111;stroke-miterlimit:10;stroke-width:2px;}.b{fill:#f26882;}.c,.e{stroke:none;}.d{fill:none;}</style></defs><g transform="translate(-222.01 -1357.571)"><g transform="translate(222.01 1357.571)"><g class="a"><rect class="c" width="285.576" height="34.466" rx="10"/><rect class="d" x="1" y="1" width="283.576" height="32.466" rx="9"/></g></g><g class="b" transform="translate(222.325 1357.702)"><path class="c" d="M 140.6307373046875 33.37439727783203 L 9.045895576477051 33.37439727783203 C 4.609368801116943 33.37439727783203 1.000005006790161 29.76503562927246 1.000005006790161 25.3285083770752 L 1.000005006790161 9.045889854431152 C 1.000005006790161 4.609362125396729 4.609368801116943 0.9999986290931702 9.045895576477051 0.9999986290931702 L 140.6307373046875 0.9999986290931702 L 140.6307373046875 33.37439727783203 Z"/><path class="e" d="M 9.045883178710938 2 C 5.1607666015625 2 1.999984741210938 5.160778045654297 1.999984741210938 9.0458984375 L 1.999984741210938 25.32849884033203 C 1.999984741210938 29.21361923217773 5.1607666015625 32.37439727783203 9.045883178710938 32.37439727783203 L 139.6307220458984 32.37439727783203 L 139.6307220458984 2 L 9.045883178710938 2 M 9.045883178710938 0 L 141.6307220458984 0 L 141.6307220458984 34.37439727783203 L 9.045883178710938 34.37439727783203 C 4.04998779296875 34.37439727783203 -1.52587890625e-05 30.32441902160645 -1.52587890625e-05 25.32849884033203 L -1.52587890625e-05 9.0458984375 C -1.52587890625e-05 4.049978256225586 4.04998779296875 0 9.045883178710938 0 Z"/></g></g></svg>