<svg xmlns="http://www.w3.org/2000/svg" width="285.576" height="34.505" viewBox="0 0 285.576 34.505"><defs><style>.a{fill:#f26882;}.b{fill:#fff;}.c,.d,.e{stroke:none;}.d{fill:#111;}</style></defs><g transform="translate(-222.01 -1357.571)"><g transform="translate(222.01 1357.571)"><g class="a"><path class="c" d="M 275.5757751464844 33.46627807617188 L 9.999994277954102 33.46627807617188 C 5.037387371063232 33.46627807617188 0.999994695186615 29.42888259887695 0.999994695186615 24.46627616882324 L 0.999994695186615 9.999990463256836 C 0.999994695186615 5.037383079528809 5.037387371063232 0.9999904632568359 9.999994277954102 0.9999904632568359 L 275.5757751464844 0.9999904632568359 C 280.5383911132813 0.9999904632568359 284.5757751464844 5.037383079528809 284.5757751464844 9.999990463256836 L 284.5757751464844 24.46627616882324 C 284.5757751464844 29.42888259887695 280.5383911132813 33.46627807617188 275.5757751464844 33.46627807617188 Z"/><path class="d" d="M 10 2.000019073486328 C 5.588775634765625 2.000019073486328 2 5.588787078857422 2 10.0000171661377 L 2 24.46624755859375 C 2 28.87747955322266 5.588775634765625 32.46624755859375 10 32.46624755859375 L 275.5757751464844 32.46624755859375 C 279.9869995117188 32.46624755859375 283.5757751464844 28.87747955322266 283.5757751464844 24.46624755859375 L 283.5757751464844 10.0000171661377 C 283.5757751464844 5.588787078857422 279.9869995117188 2.000019073486328 275.5757751464844 2.000019073486328 L 10 2.000019073486328 M 10 1.9073486328125e-05 L 275.5757751464844 1.9073486328125e-05 C 281.0986328125 1.9073486328125e-05 285.5757751464844 4.477132797241211 285.5757751464844 10.0000171661377 L 285.5757751464844 24.46624755859375 C 285.5757751464844 29.98913383483887 281.0986328125 34.46624755859375 275.5757751464844 34.46624755859375 L 10 34.46624755859375 C 4.47711181640625 34.46624755859375 0 29.98913383483887 0 24.46624755859375 L 0 10.0000171661377 C 0 4.477132797241211 4.47711181640625 1.9073486328125e-05 10 1.9073486328125e-05 Z"/></g></g><g class="b" transform="translate(222.325 1357.702)"><path class="c" d="M 140.6307373046875 33.37439727783203 L 9.045895576477051 33.37439727783203 C 4.609368801116943 33.37439727783203 1.000005006790161 29.76503562927246 1.000005006790161 25.3285083770752 L 1.000005006790161 9.045889854431152 C 1.000005006790161 4.609362125396729 4.609368801116943 0.9999986290931702 9.045895576477051 0.9999986290931702 L 140.6307373046875 0.9999986290931702 L 140.6307373046875 33.37439727783203 Z"/><path class="e" d="M 9.045883178710938 2 C 5.1607666015625 2 1.999984741210938 5.160778045654297 1.999984741210938 9.0458984375 L 1.999984741210938 25.32849884033203 C 1.999984741210938 29.21361923217773 5.1607666015625 32.37439727783203 9.045883178710938 32.37439727783203 L 139.6307220458984 32.37439727783203 L 139.6307220458984 2 L 9.045883178710938 2 M 9.045883178710938 0 L 141.6307220458984 0 L 141.6307220458984 34.37439727783203 L 9.045883178710938 34.37439727783203 C 4.04998779296875 34.37439727783203 -1.52587890625e-05 30.32441902160645 -1.52587890625e-05 25.32849884033203 L -1.52587890625e-05 9.0458984375 C -1.52587890625e-05 4.049978256225586 4.04998779296875 0 9.045883178710938 0 Z"/></g></g></svg>