<svg height="197pt" preserveAspectRatio="xMidYMid meet" viewBox="0 0 145 197" width="145pt" xmlns="http://www.w3.org/2000/svg"><g transform="matrix(.1 0 0 -.1 0 197)"><path d="m815 1953c-9-10-30-36-48-57-40-49-160-127-314-204-301-152-411-265-445-459-9-58-9-85 1-145 8-40 13-99 12-132-2-49 2-65 25-97 24-35 67-60 80-47 2 3 35-4 72-15s97-22 135-24c37-3 67-8 67-13 0-14 32-21 46-9 17 14 128 7 169-11 27-11 36-10 67 4 34 16 39 17 60 2 30-21 56-20 94 3s121 30 153 12c20-11 27-10 52 8 33 25 52 26 69 6 18-21 31-19 66 13 16 15 64 40 105 56 96 38 116 51 146 98 27 44 24 70-12 94-22 14-27 14-59-1-29-14-36-23-36-45 0-31-19-43-56-34-23 6-23 7-7 38 29 55 44 128 50 243 5 99 3 120-17 183-15 45-35 85-55 106-44 46-57 44-54-8 5-60-10-328-22-417-18-128-51-191-99-191-11 0-23-7-26-15-8-19-31-19-50 0-9 8-31 15-50 15-54 0-69 42-68 200 2 210 47 336 170 469 57 62 62 69 51 91-7 12-28 31-47 42l-35 19-93-98c-273-286-359-449-331-625 5-33 14-69 19-79 16-29 12-44-24-83-19-20-37-36-39-36s-4 14-5 30c-1 43-10 67-28 74-21 8-51-10-59-34-6-20-35-28-35-10 0 6-11 10-24 10-43 0-66 29-78 102-24 140 24 298 122 402 28 30 125 104 214 165 242 165 294 230 267 338-14 54-35 83-63 83-10 0-25-8-33-17z"/><path d="m818 652c-30-18-58-67-58-102 0-32 28-87 53-103 84-54 197 0 197 94 0 47-21 91-52 113-30 21-106 20-140-2zm108-23c25-28 9-50-51-68-44-14-48-14-60 3-40 54 65 116 111 65zm-6-99c0-5-4-10-10-10-5 0-10 5-10 10 0 6 5 10 10 10 6 0 10-4 10-10z"/><path d="m373 640c-112-68-60-230 73-230 29 0 44 8 75 39 34 34 39 44 39 86s-5 52-39 86c-32 32-46 39-77 39-22 0-53-9-71-20zm105-22c25-21 13-46-32-63-54-21-80-17-84 13-8 55 68 88 116 50zm-6-103c0-5-5-11-11-13s-11 4-11 13 5 15 11 13 11-8 11-13z"/><path d="m561 441c-11-7-12-25-7-82 14-148 40-220 88-245 34-18 69-5 100 36 23 32 40 135 36 226l-3 69-100 3c-55 1-106-2-114-7z"/></g></svg>