<svg height="14.614" viewBox="0 0 14.614 14.614" width="14.614" xmlns="http://www.w3.org/2000/svg" xmlns:xlink="http://www.w3.org/1999/xlink"><clipPath id="a"><path d="m0 0h14.614v14.614h-14.614z"/></clipPath><g clip-path="url(#a)"><path d="m7.855.425-2.689 2.689-2.689-2.689a1.452 1.452 0 0 0 -2.053 2.052l2.69 2.69-2.69 2.689a1.452 1.452 0 0 0 2.053 2.053l2.689-2.689 2.689 2.689a1.452 1.452 0 0 0 2.478-1.025 1.436 1.436 0 0 0 -.425-1.025l-2.689-2.692 2.689-2.69a1.452 1.452 0 0 0 -2.053-2.052z" transform="matrix(.70710678 .70710678 -.70710678 .70710678 7.307 0)"/></g></svg>