<svg height="26" viewBox="0 0 26 26" width="26" xmlns="http://www.w3.org/2000/svg" xmlns:xlink="http://www.w3.org/1999/xlink"><clipPath id="a"><path d="m0 0h26v26h-26z"/></clipPath><g clip-path="url(#a)"><path d="m3244.85 9551.651v-20.207a2.736 2.736 0 0 1 .675-1.854 3.06 3.06 0 0 1 1.8-.994 1.4 1.4 0 0 1 .268-.024h.267q2.5-.023 5-.023h15.017a2.98 2.98 0 0 1 2 .729 2.74 2.74 0 0 1 .977 1.828v20.5a2.839 2.839 0 0 1 -.751 1.955 2.944 2.944 0 0 1 -1.827.989h-20.476a2.98 2.98 0 0 1 -1.948-.7 2.574 2.574 0 0 1 -.98-1.715 1.158 1.158 0 0 1 -.026-.241zm3.184-.241a1.052 1.052 0 0 0 .764.295h18.029a.969.969 0 0 0 .738-.295 1.064 1.064 0 0 0 .281-.759q0-1.362-.013-2.738t-.013-2.752c0-.915 0-1.829-.013-2.737s-.013-1.825-.013-2.751v-.18h-2.164a9.523 9.523 0 0 1 .255 2.107c0 .135 0 .271-.013.405a7.738 7.738 0 0 1 -.522 2.362 8.364 8.364 0 0 1 -1.211 2.158 7.68 7.68 0 0 1 -1.822 1.676 7.905 7.905 0 0 1 -2.014.978 7.668 7.668 0 0 1 -2.178.368h-.191a8.515 8.515 0 0 1 -2.01-.242 7.752 7.752 0 0 1 -2.061-.825 7.567 7.567 0 0 1 -1.781-1.4 8.2 8.2 0 0 1 -1.3-1.828 7.446 7.446 0 0 1 -.955-3.655 8.844 8.844 0 0 1 .266-2.107h-2.368v11.158a1.012 1.012 0 0 0 .309.762zm5.2-7.8a5.033 5.033 0 0 0 1.084 1.611 5.263 5.263 0 0 0 1.594 1.082 4.784 4.784 0 0 0 1.95.4 4.877 4.877 0 0 0 1.963-.4 5.054 5.054 0 0 0 1.594-1.082 5.107 5.107 0 0 0 1.07-1.611 5.007 5.007 0 0 0 .4-1.984 4.947 4.947 0 0 0 -.4-1.96 5.118 5.118 0 0 0 -1.07-1.611 5.054 5.054 0 0 0 -1.594-1.082 4.86 4.86 0 0 0 -1.963-.4 4.768 4.768 0 0 0 -1.95.4 5.263 5.263 0 0 0 -1.594 1.082 5.04 5.04 0 0 0 -1.478 3.6 4.968 4.968 0 0 0 .389 1.955zm9.944-7.34a.968.968 0 0 0 .725.3h2.979a.974.974 0 0 0 .726-.3 1.04 1.04 0 0 0 .293-.75v-3.075a1.04 1.04 0 0 0 -.293-.75.974.974 0 0 0 -.726-.3h-2.982a.993.993 0 0 0 -1.018 1.024v3.1a1.033 1.033 0 0 0 .291.752z" fill="#f8b1bf" transform="translate(-3244.85 -9528.549)"/></g></svg>