<svg height="21.15" viewBox="0 0 26 21.15" width="26" xmlns="http://www.w3.org/2000/svg" xmlns:xlink="http://www.w3.org/1999/xlink"><clipPath id="a"><path d="m0 0h26v21.15h-26z"/></clipPath><g clip-path="url(#a)"><path d="m3075.43 9550.895a5 5 0 0 0 .623.063c.211.01.426.014.647.014a10.409 10.409 0 0 0 3.567-.61 11.05 11.05 0 0 0 3.06-1.675 5.11 5.11 0 0 1 -3.11-1.066 5.255 5.255 0 0 1 -1.866-2.641 4.357 4.357 0 0 0 .482.076c.169.017.338.025.508.025a5.023 5.023 0 0 0 .723-.051c.229-.033.461-.077.7-.128a5.321 5.321 0 0 1 -3.06-1.84 5.1 5.1 0 0 1 -1.232-3.39v-.076a4.828 4.828 0 0 0 1.143.47 5.582 5.582 0 0 0 1.27.189 5.3 5.3 0 0 1 -1.714-1.878 5.342 5.342 0 0 1 -.458-3.961 5.6 5.6 0 0 1 .521-1.27 15.871 15.871 0 0 0 2.209 2.184 15.19 15.19 0 0 0 5.573 2.869 14.451 14.451 0 0 0 3.212.507c-.034-.185-.063-.38-.089-.583a5.323 5.323 0 0 1 .381-2.7 5.338 5.338 0 0 1 2.831-2.844 5.286 5.286 0 0 1 5.967 1.282 10.305 10.305 0 0 0 1.765-.508 11.79 11.79 0 0 0 1.637-.787 5.388 5.388 0 0 1 -.914 1.676 5.454 5.454 0 0 1 -1.448 1.27 10.847 10.847 0 0 0 1.587-.318 11.818 11.818 0 0 0 1.486-.52 11.093 11.093 0 0 1 -1.206 1.485 11.836 11.836 0 0 1 -1.46 1.282c0 .1 0 .211.013.329s.013.237.013.356a15.465 15.465 0 0 1 -.99 5.344 15.053 15.053 0 0 1 -7.681 8.456 14.662 14.662 0 0 1 -6.512 1.384 14.839 14.839 0 0 1 -2.209-.165 15.757 15.757 0 0 1 -2.12-.47 13.881 13.881 0 0 1 -1.993-.762 17.965 17.965 0 0 1 -1.856-1.01799999999z" fill="#f8b1bf" transform="translate(-3075.43 -9532.156)"/></g></svg>