<svg xmlns="http://www.w3.org/2000/svg" xmlns:xlink="http://www.w3.org/1999/xlink" width="28.986" height="24.414" viewBox="0 0 28.986 24.414"><defs><style>.a,.c{fill:none;}.b{clip-path:url(#a);}.c{stroke:#f26882;stroke-linecap:round;stroke-linejoin:round;stroke-width:2px;fill-rule:evenodd;}</style><clipPath id="a"><rect class="a" width="28.986" height="24.414"/></clipPath></defs><g class="b"><path class="c" d="M5.989-8.217h18.9" transform="translate(2.91 18.991)"/><path class="c" d="M4.589-10.156l19.71-.437" transform="translate(3.488 17.444)"/><path class="c" d="M12.85-12.85l.368,10.887" transform="translate(8.43 16.022)"/><path class="c" d="M9.043-12.686A72.031,72.031,0,0,0,9.3-2.029" transform="translate(5.899 16.135)"/><path class="c" d="M4.39-12.85H26.347v11.44S5.575-2.761,5.4.362C5.282,2.523,19.66,1.755,26.347,1.7" transform="translate(1.732 16.022)"/><path class="c" d="M.5-14.187C6-14.508,8.287-6.765,8.395-.491" transform="translate(0.406 15.103)"/><path class="c" d="M9.014-3.906A2.867,2.867,0,0,1,11.88-1.04,2.867,2.867,0,0,1,9.014,1.826,2.867,2.867,0,0,1,6.149-1.04,2.867,2.867,0,0,1,9.014-3.906Z" transform="translate(4.03 21.683)"/><path class="c" d="M15.414-3.906A2.867,2.867,0,0,1,18.28-1.04a2.867,2.867,0,0,1-2.866,2.866A2.867,2.867,0,0,1,12.548-1.04,2.867,2.867,0,0,1,15.414-3.906Z" transform="translate(8.095 21.683)"/></g></svg>