<svg height="26" viewBox="0 0 26 26" width="26" xmlns="http://www.w3.org/2000/svg" xmlns:xlink="http://www.w3.org/1999/xlink"><clipPath id="a"><path d="m0 0h26v26h-26z"/></clipPath><g clip-path="url(#a)"><path d="m31.9 24.892a4.386 4.386 0 0 1 -1.123 3.033c-.227.256-.242.4.021.618.348.305.611.8 1 .938.448.156.725-.44 1.109-.654a4.578 4.578 0 0 1 5.287.533c1.3 1.215 2.566 2.472 3.781 3.779a4.46 4.46 0 0 1 .025 5.946 38.019 38.019 0 0 1 -2.843 2.82 4.517 4.517 0 0 1 -6.162-.2q-1.578-1.566-3.141-3.154a4.568 4.568 0 0 1 -.334-6.493c.163-.206.192-.334-.021-.49a.81.81 0 0 1 -.078-.078c-.327-.327-.611-.81-1-.931s-.7.433-1.066.654a4.563 4.563 0 0 1 -5.33-.533q-1.929-1.811-3.738-3.736a4.479 4.479 0 0 1 .021-6.031 37.47 37.47 0 0 1 2.765-2.756 4.516 4.516 0 0 1 6.162.163c1.109 1.094 2.2 2.209 3.3 3.31a4.5 4.5 0 0 1 1.365 3.262zm-6.865 3.829a3.335 3.335 0 0 0 .384-.043c.256-.064.554-.156.647-.391s-.242-.334-.37-.5-.277-.3-.391-.469a1.489 1.489 0 0 1 .156-1.932 1.46 1.46 0 0 1 1.926-.178 3.737 3.737 0 0 1 .661.59c.263.305.405.192.576-.078a1.513 1.513 0 0 0 -.263-1.932c-1.038-1.066-2.075-2.117-3.134-3.161a1.56 1.56 0 0 0 -2.367.014c-.7.682-1.4 1.378-2.089 2.074a1.533 1.533 0 0 0 -.036 2.394c1.038 1.058 2.1 2.1 3.155 3.14a1.479 1.479 0 0 0 1.149.472zm10.092 2.593a1.605 1.605 0 0 0 -.711.213c-.3.17-.348.327-.064.575a3.32 3.32 0 0 1 .561.618 1.508 1.508 0 0 1 -2.1 2.117 3.561 3.561 0 0 1 -.618-.561c-.284-.348-.441-.192-.6.092a1.522 1.522 0 0 0 .306 1.925c1.023 1.051 2.054 2.088 3.091 3.126a1.6 1.6 0 0 0 2.416-.028c.7-.689 1.4-1.378 2.089-2.081a1.519 1.519 0 0 0 .007-2.351c-1.038-1.058-2.1-2.1-3.155-3.14a1.52 1.52 0 0 0 -1.218-.505z" fill="#f8b1bf" transform="translate(-17.124 -17.023)"/></g></svg>