<svg xmlns="http://www.w3.org/2000/svg" xmlns:xlink="http://www.w3.org/1999/xlink" width="26" height="26" viewBox="0 0 26 26"><defs><style>.a{fill:none;}.b{clip-path:url(#a);}.c{fill:#f8b1bf;}</style><clipPath id="a"><rect class="a" width="26" height="26"/></clipPath></defs><g class="b"><path class="c" d="M31.9,24.892a4.386,4.386,0,0,1-1.123,3.033c-.227.256-.242.4.021.618.348.305.611.8,1,.938.448.156.725-.44,1.109-.654a4.578,4.578,0,0,1,5.287.533c1.3,1.215,2.566,2.472,3.781,3.779A4.46,4.46,0,0,1,42,39.085a38.019,38.019,0,0,1-2.843,2.82,4.517,4.517,0,0,1-6.162-.2q-1.578-1.566-3.141-3.154a4.568,4.568,0,0,1-.334-6.493c.163-.206.192-.334-.021-.49a.81.81,0,0,1-.078-.078c-.327-.327-.611-.81-1-.931s-.7.433-1.066.654a4.563,4.563,0,0,1-5.33-.533q-1.929-1.811-3.738-3.736a4.479,4.479,0,0,1,.021-6.031,37.47,37.47,0,0,1,2.765-2.756,4.516,4.516,0,0,1,6.162.163c1.109,1.094,2.2,2.209,3.3,3.31A4.5,4.5,0,0,1,31.9,24.892Zm-6.865,3.829a3.335,3.335,0,0,0,.384-.043c.256-.064.554-.156.647-.391s-.242-.334-.37-.5-.277-.3-.391-.469a1.489,1.489,0,0,1,.156-1.932,1.46,1.46,0,0,1,1.926-.178,3.737,3.737,0,0,1,.661.59c.263.305.405.192.576-.078a1.513,1.513,0,0,0-.263-1.932c-1.038-1.066-2.075-2.117-3.134-3.161a1.56,1.56,0,0,0-2.367.014c-.7.682-1.4,1.378-2.089,2.074a1.533,1.533,0,0,0-.036,2.394c1.038,1.058,2.1,2.1,3.155,3.14A1.479,1.479,0,0,0,25.039,28.721Zm10.092,2.593a1.605,1.605,0,0,0-.711.213c-.3.17-.348.327-.064.575a3.32,3.32,0,0,1,.561.618,1.508,1.508,0,0,1-2.1,2.117,3.561,3.561,0,0,1-.618-.561c-.284-.348-.441-.192-.6.092a1.522,1.522,0,0,0,.306,1.925c1.023,1.051,2.054,2.088,3.091,3.126a1.6,1.6,0,0,0,2.416-.028c.7-.689,1.4-1.378,2.089-2.081a1.519,1.519,0,0,0,.007-2.351c-1.038-1.058-2.1-2.1-3.155-3.14A1.52,1.52,0,0,0,35.131,31.314Z" transform="translate(-17.124 -17.023)"/></g></svg>