<svg xmlns="http://www.w3.org/2000/svg" xmlns:xlink="http://www.w3.org/1999/xlink" width="37.379" height="31.484" viewBox="0 0 37.379 31.484"><defs><style>.a{fill:none;}.b{clip-path:url(#a);}.c{fill:rgba(255,255,255,0);stroke:#f26882;stroke-linecap:round;stroke-linejoin:round;stroke-width:2px;fill-rule:evenodd;}</style><clipPath id="a"><rect class="a" width="37.379" height="31.484"/></clipPath></defs><g class="b"><path class="c" d="M5.989-8.217H30.367" transform="translate(5.487 22.111)"/><path class="c" d="M4.589-10.03l25.417-.564" transform="translate(5.827 19.428)"/><path class="c" d="M12.85-12.85l.475,14.04" transform="translate(14.592 16.941)"/><path class="c" d="M9.068-12.686A92.889,92.889,0,0,0,9.4,1.057" transform="translate(10.2 17.133)"/><path class="c" d="M4.39-12.85H32.705V1.9S5.918.16,5.694,4.187c-.155,2.787,18.388,1.8,27.011,1.722" transform="translate(3.505 16.941)"/><path class="c" d="M.5-14.184C7.6-14.6,10.542-4.613,10.681,3.477" transform="translate(0.668 15.366)"/><path class="c" d="M9.844-3.906a3.7,3.7,0,0,1,3.7,3.7,3.7,3.7,0,0,1-3.7,3.7,3.7,3.7,0,0,1-3.7-3.7A3.7,3.7,0,0,1,9.844-3.906Z" transform="translate(6.978 26.83)"/><path class="c" d="M16.244-3.906a3.7,3.7,0,0,1,3.7,3.7,3.7,3.7,0,0,1-3.7,3.7,3.7,3.7,0,0,1-3.7-3.7A3.7,3.7,0,0,1,16.244-3.906Z" transform="translate(14.072 26.83)"/></g></svg>