<svg xmlns="http://www.w3.org/2000/svg" xmlns:xlink="http://www.w3.org/1999/xlink" width="14.48" height="12.196" viewBox="0 0 14.48 12.196"><defs><style>.a,.c{fill:none;}.b{clip-path:url(#a);}.c{stroke:#000;stroke-linecap:round;stroke-linejoin:round;fill-rule:evenodd;}</style><clipPath id="a"><rect class="a" width="14.48" height="12.196"/></clipPath></defs><g class="b"><path class="c" d="M5.989-8.217h9.444" transform="translate(-1.543 13.599)"/><path class="c" d="M4.589-10.375l9.846-.218" transform="translate(-0.554 14.016)"/><path class="c" d="M12.85-12.85l.184,5.439" transform="translate(-2.22 14.435)"/><path class="c" d="M9-12.686a35.983,35.983,0,0,0,.127,5.324" transform="translate(-1.534 14.409)"/><path class="c" d="M4.39-12.85H15.359v5.715S4.982-7.81,4.9-6.25c-.06,1.08,7.123.7,10.463.667" transform="translate(-1.332 14.435)"/><path class="c" d="M.5-14.192c2.749-.161,3.89,3.707,3.944,6.841" transform="translate(-0.048 14.649)"/><path class="c" d="M7.58-3.906A1.432,1.432,0,0,1,9.012-2.474,1.432,1.432,0,0,1,7.58-1.042,1.432,1.432,0,0,1,6.149-2.474,1.432,1.432,0,0,1,7.58-3.906Z" transform="translate(-1.064 12.786)"/><path class="c" d="M13.98-3.906a1.432,1.432,0,0,1,1.431,1.432A1.432,1.432,0,0,1,13.98-1.042a1.432,1.432,0,0,1-1.432-1.431A1.432,1.432,0,0,1,13.98-3.906Z" transform="translate(-2.236 12.786)"/></g></svg>