<svg height="24.414" viewBox="0 0 28.986 24.414" width="28.986" xmlns="http://www.w3.org/2000/svg" xmlns:xlink="http://www.w3.org/1999/xlink"><clipPath id="a"><path d="m0 0h28.986v24.414h-28.986z"/></clipPath><g style="clip-path:url(#a);fill:none;stroke:#000;stroke-linecap:round;stroke-linejoin:round;stroke-width:2"><path d="m5.989-8.217h18.9" transform="translate(2.91 18.991)"/><path d="m4.589-10.156 19.71-.437" transform="translate(3.488 17.444)"/><path d="m12.85-12.85.368 10.887" transform="translate(8.43 16.022)"/><path d="m9.043-12.686a72.031 72.031 0 0 0 .257 10.657" transform="translate(5.899 16.135)"/><path d="m4.39-12.85h21.957v11.44s-20.772-1.351-20.947 1.772c-.118 2.161 14.26 1.393 20.947 1.338" transform="translate(1.732 16.022)"/><path d="m.5-14.187c5.5-.321 7.787 7.422 7.895 13.696" transform="translate(.406 15.103)"/><path d="m9.014-3.906a2.867 2.867 0 0 1 2.866 2.866 2.867 2.867 0 0 1 -2.866 2.866 2.867 2.867 0 0 1 -2.865-2.866 2.867 2.867 0 0 1 2.865-2.866z" transform="translate(4.03 21.683)"/><path d="m15.414-3.906a2.867 2.867 0 0 1 2.866 2.866 2.867 2.867 0 0 1 -2.866 2.866 2.867 2.867 0 0 1 -2.866-2.866 2.867 2.867 0 0 1 2.866-2.866z" transform="translate(8.095 21.683)"/></g></svg>