<svg xmlns="http://www.w3.org/2000/svg" xmlns:xlink="http://www.w3.org/1999/xlink" width="14.614" height="14.614" viewBox="0 0 14.614 14.614"><defs><style>.a{fill:none;}.b{clip-path:url(#a);}</style><clipPath id="a"><rect class="a" width="14.614" height="14.614"/></clipPath></defs><g class="b"><path d="M7.855.425,5.166,3.114,2.477.425A1.452,1.452,0,0,0,.424,2.477L3.114,5.167.424,7.856A1.452,1.452,0,0,0,2.477,9.909L5.166,7.22,7.855,9.909a1.452,1.452,0,0,0,2.478-1.025,1.436,1.436,0,0,0-.425-1.025L7.219,5.167,9.908,2.477A1.452,1.452,0,0,0,7.855.425Z" transform="translate(7.307 0) rotate(45)"/></g></svg>