<svg xmlns="http://www.w3.org/2000/svg" xmlns:xlink="http://www.w3.org/1999/xlink" width="12.721" height="26" viewBox="0 0 12.721 26"><defs><style>.a{fill:none;}.b{clip-path:url(#a);}.c{fill:#f8b1bf;}</style><clipPath id="a"><rect class="a" width="12.721" height="26"/></clipPath></defs><g class="b"><path class="c" d="M3007.062,9542.362v-4.393h3.3v-3.759a6.22,6.22,0,0,1,.369-2.119,4.931,4.931,0,0,1,1.143-1.816,5.637,5.637,0,0,1,1.955-1.257,7.691,7.691,0,0,1,2.831-.47c.9,0,1.638.031,2.223.09l.875.088-.1,4.24-.864-.012q-.866-.012-2-.013c-.791,0-1.3.17-1.522.508a2.516,2.516,0,0,0-.335,1.4v3.121h4.85l-.206,4.393h-4.644v12.187h-4.571v-12.187Z" transform="translate(-3007.062 -9528.549)"/></g></svg>