<svg xmlns="http://www.w3.org/2000/svg" width="18.707" height="24.216" viewBox="0 0 18.707 24.216"><path d="M33.68,15.661a2.855,2.855,0,0,0-.834.094,2.784,2.784,0,0,0-1.718,1.327L30.344,18.5a.666.666,0,0,0,.239.892l3.763,2.175a.613.613,0,0,0,.326.087.477.477,0,0,0,.174-.022.615.615,0,0,0,.392-.3l.8-1.414a2.855,2.855,0,0,0,.283-2.153A2.784,2.784,0,0,0,35,16.038,2.881,2.881,0,0,0,33.68,15.661ZM29.5,20.546a.657.657,0,0,0-.522.32l-6.568,11.4a9.231,9.231,0,0,0-1.24,4.111l-.174,2.806a.655.655,0,0,0,.326.609.614.614,0,0,0,.326.087.733.733,0,0,0,.37-.109l2.349-1.544A9.412,9.412,0,0,0,27.3,35.091l6.59-11.4a.653.653,0,0,0-1.131-.653l-6.59,11.4a8.373,8.373,0,0,1-2.545,2.7l-1.261.826.087-1.5a7.914,7.914,0,0,1,1.066-3.545l6.59-11.4a.666.666,0,0,0-.239-.892A.646.646,0,0,0,29.5,20.546ZM27.082,38.571a.653.653,0,1,0,0,1.305h8.7a.653.653,0,1,0,0-1.305Zm11.962,0a.653.653,0,1,0,.653.653A.653.653,0,0,0,39.044,38.571Z" transform="translate(-20.989 -15.66)"/></svg>