<svg height="60" viewBox="0 0 60 60" width="60" xmlns="http://www.w3.org/2000/svg" xmlns:xlink="http://www.w3.org/1999/xlink"><clipPath id="a"><path d="m0 0h60v60h-60z"/></clipPath><clipPath id="b"><path d="m0 0h59.969v59.969h-59.969z"/></clipPath><g clip-path="url(#a)"><g clip-path="url(#b)" transform="translate(.031 .031)"><path d="m65.454 36.517a28.838 28.838 0 1 1 -28.88-28.739 28.913 28.913 0 0 1 28.88 28.739" fill="#f2a0b2" transform="translate(-6.612 -6.612)"/><g fill="#1a1818"><path d="m59 30.434a28.471 28.471 0 1 1 -28.51-28.371 28.574 28.574 0 0 1 28.51 28.371m-28.511-29.793a29.888 29.888 0 1 0 29.928 29.783 29.992 29.992 0 0 0 -29.928-29.783" transform="translate(-.545 -.545)"/><path d="m187.671 179.773s.573 9.448.571 9.533a.236.236 0 0 0 .235.2c.1 0 .22-.045.217-.2 0-.06-.014-9.22-.014-9.22z" transform="translate(-159.535 -152.821)"/><path d="m257.615 177.688s-1.057 7.407-1.076 7.515.11.008.127-.085 1.289-7.586 1.289-7.586z" transform="translate(-218.077 -150.915)"/><path d="m175.288 170.76s.888 10.365.894 10.449c.008.227.018.51.36.538s.346-.3.345-.443c0-.1-.3-9.613-.3-9.613z" transform="translate(-149.008 -145.159)"/><path d="m162.6 165.1c.1.962 1.337 10.984 1.364 11.092.03.189.029.452.347.538s.393-.213.392-.381c-.005-.131-.627-10.713-.627-10.713z" transform="translate(-138.219 -140.346)"/><path d="m132.862 172.514-2.736-.414s2.2 8.264 2.289 8.5c.272.816 1.787 1.6 1.654.621-.083-.623-1.207-8.707-1.207-8.707" transform="translate(-110.617 -146.298)"/><path d="m152.374 180.745c.338.069.455-.025.463-.492 0-.141-.83-9.917-.83-9.917l-1.538-.071 1.444 9.723c.082.4.133.68.461.758" transform="translate(-127.91 -144.738)"/><path d="m198.93 190.21c0 .207.263.21.263.21s.243-.025.245-.194c0-.076.277-9.416.277-9.416l-1.057.219s.272 9.108.271 9.18" transform="translate(-168.876 -153.703)"/><path d="m247.223 175.88s-1.078 8.722-1.089 8.84a.131.131 0 0 0 .17.137c.125-.049.132-.242.142-.277.02-.086 1.191-8.646 1.191-8.646z" transform="translate(-209.232 -149.512)"/><path d="m238.941 176.177s-.984 9.145-.987 9.244a.159.159 0 0 0 .225.173c.1-.038.164-.081.2-.313.019-.09 1.194-8.98 1.194-8.98z" transform="translate(-202.279 -149.764)"/><path d="m252.285 178.342s-1.112 8.047-1.12 8.12.053.11.122.065a.383.383 0 0 0 .105-.195c.029-.146 1.3-7.945 1.3-7.945z" transform="translate(-213.509 -151.604)"/><path d="m230.154 172.169s-.813 9.925-.829 10.141.119.269.274.24.175-.1.214-.3c.014-.1.986-9.886.986-9.886z" transform="translate(-194.944 -146.357)"/><path d="m209.906 186.378a.231.231 0 0 0 .278.228.235.235 0 0 0 .226-.249l.4-9.964-.738.364s-.161 9.451-.161 9.621" transform="translate(-178.436 -149.948)"/><path d="m220.149 182.794a.246.246 0 0 0 .25.238.283.283 0 0 0 .218-.213c.028-.158.547-10.435.547-10.435l-.6.158-.417 10.252" transform="translate(-187.144 -146.54)"/></g><path d="m102.579 66.3c.469.469 1.873 2.095 3.565 1.486s2.118-1.409 3.527-1.244c1.374.163 1.551 1.671 4.307 1.744 2.134.053 2.988-1.426 4.671-1.43 1.242-.006 1.988 1.507 3.846 1.6 1.24.065 1.723-.731 2.541-1.514a40.291 40.291 0 0 1 2.58-3.177 5.465 5.465 0 0 0 1.061-3.871c-.3-.747-.6-2.252-2.334-1.855 1.621-3.3-4.438-7.166-7.511-4.339.471-1.707-.394-2.709-.749-3.729a3.068 3.068 0 0 0 -2.73-1.794c-2.492-.02-3.182.833-3.938 3.505-2.82-.437-5.692 1.619-5.676 3.443a1.492 1.492 0 0 0 -1.494-.384 5.567 5.567 0 0 0 -1.132.839c-.108.217.361 2.265-.136 2.288a6.814 6.814 0 0 1 -1.336.035c-.612-.055-1.465.778-1.715 1.28s-1.586.969-.4 2.653 3.052 4.459 3.052 4.459" fill="#fff" transform="translate(-84.195 -40.955)"/><path d="m96.438 109.255a3.755 3.755 0 0 0 -1.162 4.5 6.892 6.892 0 0 0 4.1 3.844.612.612 0 0 0 .793-.337.6.6 0 0 0 -.342-.792 5.732 5.732 0 0 1 -3.421-3.149 2.521 2.521 0 0 1 .707-3.066 1.293 1.293 0 0 1 1.663.085 28.958 28.958 0 0 1 2.053 3.334.608.608 0 1 0 1.07-.58 28.232 28.232 0 0 0 -2.308-3.654 2.485 2.485 0 0 0 -3.157-.189" fill="#1a1818" transform="translate(-80.741 -92.47)"/><path d="m120.444 89.32c-1.8 1.325-.822 4.015-.78 4.122a.611.611 0 0 0 1.145-.429c-.01-.018-.7-1.931.357-2.713a1.277 1.277 0 0 1 1.288-.306c.669.307 1.478 1.687 1.728 4.662a.608.608 0 1 0 1.213-.1c-.255-3.1-1.1-5.066-2.442-5.667a2.385 2.385 0 0 0 -2.507.431" fill="#1a1818" transform="translate(-101.467 -75.404)"/><path d="m153.545 65.742c-.013.187-.254 4.64 1.691 6.713a3.167 3.167 0 0 0 2.384 1.017 3.8 3.8 0 0 0 2.928-1.119c1.277-1.393 1.087-3.7.976-5.084-.028-.287-.043-.546-.048-.718a.607.607 0 0 0 -.616-.607.621.621 0 0 0 -.6.623c.006.222.028.487.056.807.1 1.254.259 3.155-.662 4.156a2.6 2.6 0 0 1 -2.03.729 1.933 1.933 0 0 1 -1.492-.642c-1.325-1.405-1.435-4.666-1.371-5.8a.607.607 0 1 0 -1.212-.07" fill="#1a1818" transform="translate(-130.512 -55.396)"/><path d="m178.808 47.664a4.333 4.333 0 0 0 -3.242 1.566 6.279 6.279 0 0 0 -1.04 4.951.611.611 0 0 0 1.208-.186 5.069 5.069 0 0 1 .773-4 3.127 3.127 0 0 1 2.365-1.122 3.072 3.072 0 0 1 3.071 1.476c.837 1.527.371 3.831-1.2 6.015a.608.608 0 0 0 .987.71c1.852-2.565 2.343-5.359 1.288-7.307a4.272 4.272 0 0 0 -4.207-2.1" fill="#1a1818" transform="translate(-148.275 -40.51)"/><path d="m256.669 66.734-2.9 9.479a.606.606 0 0 0 1.158.358l2.9-9.485a.607.607 0 1 0 -1.161-.352" fill="#1a1818" transform="translate(-215.7 -56.363)"/><path d="m256.221 111.927a.593.593 0 0 0 .365.775.607.607 0 0 0 .778-.357 2.277 2.277 0 0 1 2.283-1.37 1.948 1.948 0 0 1 1.635.972 2.679 2.679 0 0 1 -.021 2.529 12.012 12.012 0 0 1 -3.477 3.69.6.6 0 1 0 .649 1.021 13.015 13.015 0 0 0 3.916-4.174 3.884 3.884 0 0 0 -.018-3.684 3.177 3.177 0 0 0 -2.626-1.572 3.478 3.478 0 0 0 -3.484 2.169" fill="#1a1818" transform="translate(-217.775 -93.298)"/><path d="m224.489 98.523a4.93 4.93 0 0 0 -.539 5.715 4.05 4.05 0 0 0 3.7 2.1 4.259 4.259 0 0 0 3.686-2.113.6.6 0 0 0 -.264-.812.608.608 0 0 0 -.822.263 3.073 3.073 0 0 1 -2.625 1.447 2.822 2.822 0 0 1 -2.612-1.484 3.684 3.684 0 0 1 .382-4.3 2.154 2.154 0 0 1 2.5-.7.6.6 0 0 0 .8-.305.6.6 0 0 0 -.306-.8 3.36 3.36 0 0 0 -3.894.987" fill="#1a1818" transform="translate(-189.807 -82.685)"/><path d="m147.209 254.982a.761.761 0 0 0 .163.414c.008.008 0 0-.018 0a.808.808 0 1 0 0 1.616.717.717 0 0 1 1.38-.006.809.809 0 0 0 .8-.808.8.8 0 0 0 -.8-.8c-.043-.006-.085 0-.068-.007a.73.73 0 0 0 .157-.415.81.81 0 0 0 -1.62.006m4.752 1.21a.811.811 0 1 0 .808-.813.819.819 0 0 0 -.808.813m5.13.885a2.162 2.162 0 0 0 -1.968 2.323 2.469 2.469 0 0 0 .248 1.055 1.517 1.517 0 0 1 -.77-.274 2.936 2.936 0 0 1 -.555-1.411c.006.018-.146-.7-.146-.7l-.023-.087a.764.764 0 0 0 -.852-.566.652.652 0 0 0 -.461.315.749.749 0 0 0 -.068.521 9.226 9.226 0 0 1 .218 1.916c-.034.108-.183.216-.465.3a.729.729 0 0 1 -.665-.132c-.173-.158-.493-.663-.689-2.293a.7.7 0 0 0 -.8-.621.73.73 0 0 0 -.639.8c.013.187.447 2.1.124 2.255-.048.025-.169.1-.244.008a7.261 7.261 0 0 1 -.451-2.416.7.7 0 0 0 -.794-.642c-.61.076-.646.791-.646.791s.3 2.1.058 2.255c-.063.047-.187.106-.264.016a1.307 1.307 0 0 1 -.211-.608l-.236-1.807a.713.713 0 0 0 -.8-.642.727.727 0 0 0 -.642.792c.023.237.246 1.894.246 1.894a2.043 2.043 0 0 1 -.33 1.518 1.485 1.485 0 0 1 -1.131.373 1.507 1.507 0 0 1 -1.185-.433 2.513 2.513 0 0 1 -.382-2 .667.667 0 0 0 -.626-.808.751.751 0 0 0 -.807.632 3.916 3.916 0 0 0 .727 3.135 2.966 2.966 0 0 0 2.277.922 2.877 2.877 0 0 0 2.2-.842 2.779 2.779 0 0 0 .442-.741 1.668 1.668 0 0 0 1.02.04 1.493 1.493 0 0 0 .61-.349 1.559 1.559 0 0 0 1.579.307 1.281 1.281 0 0 0 .62-.47 2.167 2.167 0 0 0 2.064.45 2.436 2.436 0 0 0 .958-.61c1.022.948 3.518.85 4.4.375a2.379 2.379 0 0 0 1.133-1.931 2.611 2.611 0 0 0 -.653-2.032 1.913 1.913 0 0 0 -1.425-.579m.09 3.165c-.411 0-.607-.557-.611-.841 0-.423.218-.87.533-.878a.521.521 0 0 1 .378.146 1.242 1.242 0 0 1 .241.85c-.054.644-.33.726-.541.723" fill="#1a1818" transform="translate(-119.938 -216.066)"/><path d="m149.952 257.377a.465.465 0 1 0 -.468-.463.466.466 0 0 0 .468.463m4.746 1.208a.465.465 0 1 0 0-.929.472.472 0 0 0 -.467.471.465.465 0 0 0 .467.459m-4.5-.449a.462.462 0 0 0 .468.46.456.456 0 0 0 .464-.463.463.463 0 0 0 -.467-.466.474.474 0 0 0 -.465.469m10 1.7a1.565 1.565 0 0 0 -1.171-.475 1.818 1.818 0 0 0 -1.637 1.979 2.025 2.025 0 0 0 .577 1.458 2.613 2.613 0 0 1 -1.68-.439 3.212 3.212 0 0 1 -.643-1.581c-.035-.214-.16-.754-.174-.788a.376.376 0 0 0 -.445-.3.392.392 0 0 0 -.308.452c.065.288.119.549.176.785a8.845 8.845 0 0 1 .087 1.057v.106c.01.2-.291.512-.707.65a1.06 1.06 0 0 1 -.993-.208 4.375 4.375 0 0 1 -.794-2.5.385.385 0 0 0 -.426-.34.391.391 0 0 0 -.337.427c.065.536.208 1.171.233 1.329.118.893-.13 1.165-.238 1.24a.547.547 0 0 1 -.716-.033 6.3 6.3 0 0 1 -.533-2.616.371.371 0 0 0 -.418-.336.383.383 0 0 0 -.338.421c.068.641.174 1.274.188 1.573.034.566-.1.881-.279 1a.551.551 0 0 1 -.711-.029 1.716 1.716 0 0 1 -.294-.777v-.007c-.088-.441-.155-1.04-.244-1.835a.381.381 0 0 0 -.415-.341.389.389 0 0 0 -.337.422c.082.8.146 1.393.24 1.864a2.382 2.382 0 0 1 -.415 1.812 1.782 1.782 0 0 1 -1.386.483 1.809 1.809 0 0 1 -1.439-.549 2.855 2.855 0 0 1 -.462-2.264.383.383 0 1 0 -.76-.089 3.571 3.571 0 0 0 .65 2.861 2.608 2.608 0 0 0 2.015.812 2.539 2.539 0 0 0 1.944-.738 2.246 2.246 0 0 0 .512-.983 1.324 1.324 0 0 0 1.52 0 1.346 1.346 0 0 0 .3-.308 1.128 1.128 0 0 0 .1.138 1.3 1.3 0 0 0 1.7.16 1.123 1.123 0 0 0 .394-.508 1.47 1.47 0 0 0 .24.268 1.825 1.825 0 0 0 1.733.376 2.011 2.011 0 0 0 1.067-.778 1.451 1.451 0 0 0 .161.193c.844.887 3.285.8 4.082.373a2.049 2.049 0 0 0 .943-1.644 2.271 2.271 0 0 0 -.557-1.775m-1 2.677c-.717.04-1.039-.783-1.042-1.174 0-.587.33-1.206.876-1.212a.8.8 0 0 1 .622.247 1.449 1.449 0 0 1 .342 1.085c-.015.415-.312 1.024-.8 1.059m-9.913-3.906a.465.465 0 0 0 0-.93.47.47 0 0 0 -.466.472.455.455 0 0 0 .463.458" fill="#fff" transform="translate(-121.866 -218)"/><path d="m155.612 326.385c-.022.2-.036.454-.04.743a.769.769 0 0 1 .247-.221.685.685 0 0 1 .318-.068.769.769 0 0 1 .611.261 1.052 1.052 0 0 1 .218.7 1.137 1.137 0 0 1 -.229.775.793.793 0 0 1 -.646.288.594.594 0 0 1 -.562-.293c.009.078.015.117.015.117 0 .1-.045.146-.133.143s-.137-.064-.135-.188c0-.034 0-.063 0-.086 0-.052 0-.114 0-.171l.023-.305v-.38-1.01a.688.688 0 0 0 -.03-.2.1.1 0 0 0 -.085-.049c-.01 0-.043.01-.1.017a.349.349 0 0 1 -.074.011c-.088 0-.134-.045-.128-.128s.045-.122.151-.121h.077l.087.01c.037.005.074 0 .1.006a.624.624 0 0 0 .116-.01 1.044 1.044 0 0 1 .115-.011c.058 0 .087.035.087.107zm-.019 1.1a3.386 3.386 0 0 0 -.02.341 1.42 1.42 0 0 0 .064.51.432.432 0 0 0 .447.276.523.523 0 0 0 .428-.207.941.941 0 0 0 .149-.557.961.961 0 0 0 -.145-.562.485.485 0 0 0 -.4-.2.517.517 0 0 0 -.334.118.553.553 0 0 0 -.189.283" fill="#1a1818" transform="translate(-131.659 -277.316)"/><path d="m155.612 326.385c-.022.2-.036.454-.04.743a.769.769 0 0 1 .247-.221.685.685 0 0 1 .318-.068.769.769 0 0 1 .611.261 1.052 1.052 0 0 1 .218.7 1.137 1.137 0 0 1 -.229.775.793.793 0 0 1 -.646.288.594.594 0 0 1 -.562-.293c.009.078.015.117.015.117 0 .1-.045.146-.133.143s-.137-.064-.135-.188c0-.034 0-.063 0-.086 0-.052 0-.114 0-.171l.023-.305v-.38-1.01a.688.688 0 0 0 -.03-.2.1.1 0 0 0 -.085-.049c-.01 0-.043.01-.1.017a.349.349 0 0 1 -.074.011c-.088 0-.134-.045-.128-.128s.045-.122.151-.121h.077l.087.01c.037.005.074 0 .1.006a.624.624 0 0 0 .116-.01 1.044 1.044 0 0 1 .115-.011c.058 0 .087.035.087.107zm-.019 1.1a3.386 3.386 0 0 0 -.02.341 1.42 1.42 0 0 0 .064.51.432.432 0 0 0 .447.276.523.523 0 0 0 .428-.207.941.941 0 0 0 .149-.557.961.961 0 0 0 -.145-.562.485.485 0 0 0 -.4-.2.517.517 0 0 0 -.334.118.553.553 0 0 0 -.188.283z" fill="none" stroke="#1a1818" stroke-width=".172" transform="translate(-131.659 -277.316)"/><path d="m174.764 332.274a.348.348 0 0 1 -.384-.266.682.682 0 0 1 -.609.284.758.758 0 0 1 -.5-.15.507.507 0 0 1 -.179-.4.488.488 0 0 1 .27-.465.864.864 0 0 1 .175-.077c.046-.006.148-.026.292-.049a1.21 1.21 0 0 0 .424-.092.232.232 0 0 0 .094-.226.3.3 0 0 0 -.106-.244.481.481 0 0 0 -.307-.087.508.508 0 0 0 -.315.1c-.04.029-.058.048-.059.075 0 .006.012.029.037.041a.15.15 0 0 1 .051.128.13.13 0 0 1 -.053.122.186.186 0 0 1 -.14.055.218.218 0 0 1 -.164-.071.2.2 0 0 1 -.063-.165.415.415 0 0 1 .2-.365.866.866 0 0 1 .513-.153c.465 0 .693.217.7.658v.773a1.926 1.926 0 0 0 .006.21c.012.089.056.132.136.136s.125-.082.128-.241v-.187c0-.082.04-.123.12-.12s.125.06.129.181v.02.215a.339.339 0 0 1 -.386.366m-.425-.753v-.272a.519.519 0 0 1 -.178.106 1.251 1.251 0 0 1 -.327.055c-.292.029-.435.142-.432.32a.3.3 0 0 0 .1.231.439.439 0 0 0 .286.084.568.568 0 0 0 .4-.142.53.53 0 0 0 .151-.382" fill="#1a1818" transform="translate(-147.141 -280.751)"/><path d="m174.764 332.274a.348.348 0 0 1 -.384-.266.682.682 0 0 1 -.609.284.758.758 0 0 1 -.5-.15.507.507 0 0 1 -.179-.4.488.488 0 0 1 .27-.465.864.864 0 0 1 .175-.077c.046-.006.148-.026.292-.049a1.21 1.21 0 0 0 .424-.092.232.232 0 0 0 .094-.226.3.3 0 0 0 -.106-.244.481.481 0 0 0 -.307-.087.508.508 0 0 0 -.315.1c-.04.029-.058.048-.059.075 0 .006.012.029.037.041a.15.15 0 0 1 .051.128.13.13 0 0 1 -.053.122.186.186 0 0 1 -.14.055.218.218 0 0 1 -.164-.071.2.2 0 0 1 -.063-.165.415.415 0 0 1 .2-.365.866.866 0 0 1 .513-.153c.465 0 .693.217.7.658v.773a1.926 1.926 0 0 0 .006.21c.012.089.056.132.136.136s.125-.082.128-.241v-.187c0-.082.04-.123.12-.12s.125.06.129.181v.02.215a.339.339 0 0 1 -.396.36zm-.425-.753v-.272a.519.519 0 0 1 -.178.106 1.251 1.251 0 0 1 -.327.055c-.292.029-.435.142-.432.32a.3.3 0 0 0 .1.231.439.439 0 0 0 .286.084.568.568 0 0 0 .4-.142.53.53 0 0 0 .151-.382z" fill="none" stroke="#1a1818" stroke-width=".172" transform="translate(-147.141 -280.751)"/><path d="m190.091 327.723.652-.616a.083.083 0 0 0 .034-.069c0-.022-.012-.036-.052-.035-.022 0-.062.011-.1.009a.562.562 0 0 1 -.113.022c-.087 0-.131-.038-.132-.124s.056-.127.168-.129h.1a2.372 2.372 0 0 0 .4.033h.128l.153-.026a.453.453 0 0 1 .085 0c.122 0 .191.037.192.126a.115.115 0 0 1 -.128.128.347.347 0 0 1 -.083-.014c-.046-.005-.072-.007-.092-.011a.308.308 0 0 0 -.2.1l-.4.367c-.031.027-.047.047-.045.065s.009.03.034.055l.486.627c.118.159.211.24.264.244a.445.445 0 0 1 .063-.014c.029 0 .054-.007.071-.01.09 0 .135.037.135.122s-.055.127-.171.129c-.049 0-.116-.01-.2-.016a2.018 2.018 0 0 0 -.208-.013c-.043.006-.1.005-.176.019a1.462 1.462 0 0 1 -.171.008c-.094 0-.146-.037-.144-.124s.049-.126.14-.124a.417.417 0 0 0 .058 0l.092.023c.016 0 .028-.008.029-.029v-.01l-.045-.058-.046-.074-.385-.5c-.02-.032-.046-.05-.058-.05a.286.286 0 0 0 -.059.035l-.282.255v.088a.962.962 0 0 0 .007.206c.011.089.049.135.109.133a.382.382 0 0 0 .065-.008.36.36 0 0 1 .07-.007.115.115 0 0 1 .129.125c0 .084-.049.126-.147.126-.045 0-.11 0-.2-.012a1.17 1.17 0 0 0 -.2-.016c-.057 0-.119.006-.2.013-.1.012-.157.014-.195.017-.1 0-.144-.039-.148-.12a.126.126 0 0 1 .141-.131c.02 0 .046.005.078.005s.065.02.086.013c.057.008.092-.05.1-.143l.011-.147v-1.538a1.773 1.773 0 0 0 -.024-.256.086.086 0 0 0 -.084-.062c-.014.006-.034.006-.074.019s-.064.013-.1.019c-.09 0-.127-.041-.128-.123s.052-.131.149-.128a.748.748 0 0 1 .109 0c.057.012.1.008.12.014a.739.739 0 0 0 .088-.013h.087.026c.085 0 .124.047.119.159z" fill="#1a1818" transform="translate(-160.993 -277.211)"/><path d="m190.091 327.723.652-.616a.083.083 0 0 0 .034-.069c0-.022-.012-.036-.052-.035-.022 0-.062.011-.1.009a.562.562 0 0 1 -.113.022c-.087 0-.131-.038-.132-.124s.056-.127.168-.129h.1a2.372 2.372 0 0 0 .4.033h.128l.153-.026a.453.453 0 0 1 .085 0c.122 0 .191.037.192.126a.115.115 0 0 1 -.128.128.347.347 0 0 1 -.083-.014c-.046-.005-.072-.007-.092-.011a.308.308 0 0 0 -.2.1l-.4.367c-.031.027-.047.047-.045.065s.009.03.034.055l.486.627c.118.159.211.24.264.244a.445.445 0 0 1 .063-.014c.029 0 .054-.007.071-.01.09 0 .135.037.135.122s-.055.127-.171.129c-.049 0-.116-.01-.2-.016a2.018 2.018 0 0 0 -.208-.013c-.043.006-.1.005-.176.019a1.462 1.462 0 0 1 -.171.008c-.094 0-.146-.037-.144-.124s.049-.126.14-.124a.417.417 0 0 0 .058 0l.092.023c.016 0 .028-.008.029-.029v-.01l-.045-.058-.046-.074-.385-.5c-.02-.032-.046-.05-.058-.05a.286.286 0 0 0 -.059.035l-.282.255v.088a.962.962 0 0 0 .007.206c.011.089.049.135.109.133a.382.382 0 0 0 .065-.008.36.36 0 0 1 .07-.007.115.115 0 0 1 .129.125c0 .084-.049.126-.147.126-.045 0-.11 0-.2-.012a1.17 1.17 0 0 0 -.2-.016c-.057 0-.119.006-.2.013-.1.012-.157.014-.195.017-.1 0-.144-.039-.148-.12a.126.126 0 0 1 .141-.131c.02 0 .046.005.078.005s.065.02.086.013c.057.008.092-.05.1-.143l.011-.147v-1.538a1.773 1.773 0 0 0 -.024-.256.086.086 0 0 0 -.084-.062c-.014.006-.034.006-.074.019s-.064.013-.1.019c-.09 0-.127-.041-.128-.123s.052-.131.149-.128a.748.748 0 0 1 .109 0c.057.012.1.008.12.014a.739.739 0 0 0 .088-.013h.087.026c.085 0 .124.047.119.159z" fill="none" stroke="#1a1818" stroke-width=".172" transform="translate(-160.993 -277.211)"/><path d="m209.675 330.983a.419.419 0 0 1 -.018.181c-.008.02-.049.028-.112.031l-1.2.012a.144.144 0 0 0 -.067.01.127.127 0 0 0 -.013.039.673.673 0 0 0 .172.476.551.551 0 0 0 .423.2.607.607 0 0 0 .307-.1.406.406 0 0 0 .179-.231l.037-.114a.117.117 0 0 1 .123-.088c.1 0 .143.046.142.146a.537.537 0 0 1 -.248.435.9.9 0 0 1 -.572.192.808.808 0 0 1 -.638-.256 1.227 1.227 0 0 1 .018-1.476.828.828 0 0 1 .65-.293.777.777 0 0 1 .59.236.807.807 0 0 1 .232.6m-1.372-.091c0 .039.026.054.082.053h.9c.054 0 .084-.021.086-.056a.52.52 0 0 0 -.515-.495.572.572 0 0 0 -.388.158.434.434 0 0 0 -.169.339" fill="#1a1818" transform="translate(-176.771 -280.65)"/><path d="m209.675 330.983a.419.419 0 0 1 -.018.181c-.008.02-.049.028-.112.031l-1.2.012a.144.144 0 0 0 -.067.01.127.127 0 0 0 -.013.039.673.673 0 0 0 .172.476.551.551 0 0 0 .423.2.607.607 0 0 0 .307-.1.406.406 0 0 0 .179-.231l.037-.114a.117.117 0 0 1 .123-.088c.1 0 .143.046.142.146a.537.537 0 0 1 -.248.435.9.9 0 0 1 -.572.192.808.808 0 0 1 -.638-.256 1.227 1.227 0 0 1 .018-1.476.828.828 0 0 1 .65-.293.777.777 0 0 1 .59.236.807.807 0 0 1 .227.6zm-1.372-.091c0 .039.026.054.082.053h.9c.054 0 .084-.021.086-.056a.52.52 0 0 0 -.515-.495.572.572 0 0 0 -.388.158.434.434 0 0 0 -.168.34z" fill="none" stroke="#1a1818" stroke-width=".172" transform="translate(-176.771 -280.65)"/><path d="m224.005 330.255-.007.107a.675.675 0 0 1 .965-.132.481.481 0 0 1 .164.383.387.387 0 0 1 -.081.269.247.247 0 0 1 -.221.107.193.193 0 0 1 -.146-.049.156.156 0 0 1 -.06-.129.143.143 0 0 1 .042-.109.153.153 0 0 1 .1-.047.119.119 0 0 1 .051.01.174.174 0 0 0 .028-.082.227.227 0 0 0 -.1-.185.369.369 0 0 0 -.243-.076.383.383 0 0 0 -.395.273 1.5 1.5 0 0 0 -.058.485v.256.28c.012.147.061.219.125.218a.473.473 0 0 0 .1-.017.622.622 0 0 1 .069 0 .109.109 0 0 1 .125.112c0 .087-.051.136-.151.137h-.022a1.534 1.534 0 0 1 -.17-.012c-.076-.007-.134-.012-.174-.011a1.464 1.464 0 0 0 -.239.009l-.213.018c-.1 0-.157-.047-.149-.137s.043-.114.139-.121a.194.194 0 0 0 .061.008l.056.008a.185.185 0 0 0 .054.009c.067.006.1-.056.1-.17v-.2l-.017-.866c0-.146-.044-.218-.109-.218a.345.345 0 0 0 -.086.011.3.3 0 0 1 -.082.011.115.115 0 0 1 -.127-.127c0-.082.053-.129.163-.126a.666.666 0 0 1 .115 0 .616.616 0 0 0 .111.01.408.408 0 0 0 .1-.01.267.267 0 0 1 .069-.008c.071 0 .1.032.1.1" fill="#1a1818" transform="translate(-189.859 -280.596)"/><path d="m224.005 330.255-.007.107a.675.675 0 0 1 .965-.132.481.481 0 0 1 .164.383.387.387 0 0 1 -.081.269.247.247 0 0 1 -.221.107.193.193 0 0 1 -.146-.049.156.156 0 0 1 -.06-.129.143.143 0 0 1 .042-.109.153.153 0 0 1 .1-.047.119.119 0 0 1 .051.01.174.174 0 0 0 .028-.082.227.227 0 0 0 -.1-.185.369.369 0 0 0 -.243-.076.383.383 0 0 0 -.395.273 1.5 1.5 0 0 0 -.058.485v.256.28c.012.147.061.219.125.218a.473.473 0 0 0 .1-.017.622.622 0 0 1 .069 0 .109.109 0 0 1 .125.112c0 .087-.051.136-.151.137h-.022a1.534 1.534 0 0 1 -.17-.012c-.076-.007-.134-.012-.174-.011a1.464 1.464 0 0 0 -.239.009l-.213.018c-.1 0-.157-.047-.149-.137s.043-.114.139-.121a.194.194 0 0 0 .061.008l.056.008a.185.185 0 0 0 .054.009c.067.006.1-.056.1-.17v-.2l-.017-.866c0-.146-.044-.218-.109-.218a.345.345 0 0 0 -.086.011.3.3 0 0 1 -.082.011.115.115 0 0 1 -.127-.127c0-.082.053-.129.163-.126a.666.666 0 0 1 .115 0 .616.616 0 0 0 .111.01.408.408 0 0 0 .1-.01.267.267 0 0 1 .069-.008c.08.004.108.038.113.111z" fill="none" stroke="#1a1818" stroke-width=".172" transform="translate(-189.859 -280.596)"/><path d="m238.785 330.809.432 1.28.462-1.268a.338.338 0 0 0 .024-.079c-.005-.049-.027-.071-.087-.066a.514.514 0 0 0 -.074 0 .563.563 0 0 1 -.077.017c-.085-.007-.127-.042-.126-.122s.056-.135.164-.133a.422.422 0 0 1 .077.008l.138.016a.57.57 0 0 0 .113.011 1.333 1.333 0 0 0 .188-.019c.082-.011.145-.014.19-.017.109 0 .162.044.158.126s-.037.125-.116.124a.147.147 0 0 1 -.059-.007.649.649 0 0 1 -.067-.013c-.049 0-.1.065-.148.2l-.519 1.3a3 3 0 0 1 -.319.623.8.8 0 0 1 -.65.333.585.585 0 0 1 -.389-.124.311.311 0 0 1 -.156-.278.252.252 0 0 1 .07-.2.225.225 0 0 1 .175-.069.231.231 0 0 1 .148.047.146.146 0 0 1 .052.129.132.132 0 0 1 -.106.149c.037.066.112.088.217.087a.516.516 0 0 0 .359-.149.444.444 0 0 0 .166-.342 1.08 1.08 0 0 0 -.108-.343l-.42-1.066-.039-.12c-.053-.114-.1-.165-.158-.166a.51.51 0 0 0 -.076.009.4.4 0 0 1 -.083.011c-.084 0-.126-.041-.126-.122s.057-.134.173-.128c.036 0 .073-.005.085 0l.148.027a.172.172 0 0 1 .037 0h.046a2.444 2.444 0 0 0 .291-.022 1.525 1.525 0 0 0 .154-.012c.113 0 .164.046.161.125s-.046.128-.146.126a.217.217 0 0 1 -.069-.008.156.156 0 0 0 -.071 0c-.032 0-.059.014-.052.046a.225.225 0 0 0 .015.084" fill="#1a1818" transform="translate(-202.27 -280.896)"/><path d="m238.785 330.809.432 1.28.462-1.268a.338.338 0 0 0 .024-.079c-.005-.049-.027-.071-.087-.066a.514.514 0 0 0 -.074 0 .563.563 0 0 1 -.077.017c-.085-.007-.127-.042-.126-.122s.056-.135.164-.133a.422.422 0 0 1 .077.008l.138.016a.57.57 0 0 0 .113.011 1.333 1.333 0 0 0 .188-.019c.082-.011.145-.014.19-.017.109 0 .162.044.158.126s-.037.125-.116.124a.147.147 0 0 1 -.059-.007.649.649 0 0 1 -.067-.013c-.049 0-.1.065-.148.2l-.519 1.3a3 3 0 0 1 -.319.623.8.8 0 0 1 -.65.333.585.585 0 0 1 -.389-.124.311.311 0 0 1 -.156-.278.252.252 0 0 1 .07-.2.225.225 0 0 1 .175-.069.231.231 0 0 1 .148.047.146.146 0 0 1 .052.129.132.132 0 0 1 -.106.149c.037.066.112.088.217.087a.516.516 0 0 0 .359-.149.444.444 0 0 0 .166-.342 1.08 1.08 0 0 0 -.108-.343l-.42-1.066-.039-.12c-.053-.114-.1-.165-.158-.166a.51.51 0 0 0 -.076.009.4.4 0 0 1 -.083.011c-.084 0-.126-.041-.126-.122s.057-.134.173-.128c.036 0 .073-.005.085 0l.148.027a.172.172 0 0 1 .037 0h.046a2.444 2.444 0 0 0 .291-.022 1.525 1.525 0 0 0 .154-.012c.113 0 .164.046.161.125s-.046.128-.146.126a.217.217 0 0 1 -.069-.008.156.156 0 0 0 -.071 0c-.032 0-.059.014-.052.046a.225.225 0 0 0 .013.079z" fill="none" stroke="#1a1818" stroke-width=".172" transform="translate(-202.27 -280.896)"/></g></g></svg>