<svg xmlns="http://www.w3.org/2000/svg" xmlns:xlink="http://www.w3.org/1999/xlink" width="130" height="130" viewBox="0 0 130 130"><defs><style>.a,.g{fill:none;}.b{clip-path:url(#a);}.c{clip-path:url(#b);}.d{fill:#f2a0b2;}.e{fill:#1a1818;}.f{fill:#fff;}.g{stroke:#1a1818;stroke-width:0.172px;}</style><clipPath id="a"><rect class="a" width="130" height="130"/></clipPath><clipPath id="b"><rect class="a" width="129.969" height="129.969"/></clipPath></defs><g class="b"><g transform="translate(0.031 0.031)"><g class="c"><path class="d" d="M132.778,70.064A62.5,62.5,0,1,1,70.187,7.778a62.663,62.663,0,0,1,62.59,62.286" transform="translate(-5.251 -5.251)"/><path class="e" d="M127.123,65.21A61.7,61.7,0,1,1,65.332,3.723a61.927,61.927,0,0,1,61.79,61.487M65.33.641a64.776,64.776,0,1,0,64.863,64.547A65,65,0,0,0,65.33.641" transform="translate(-0.433 -0.433)"/><path class="e" d="M187.671,179.773s1.241,20.477,1.238,20.661a.511.511,0,0,0,.509.437c.227,0,.476-.1.471-.444,0-.13-.03-19.983-.03-19.983Z" transform="translate(-126.693 -121.361)"/><path class="e" d="M258.873,177.87s-2.291,16.053-2.332,16.286.239.018.274-.185,2.793-16.44,2.793-16.44Z" transform="translate(-173.183 -119.847)"/><path class="e" d="M175.288,170.76s1.925,22.464,1.938,22.645c.017.492.04,1.105.78,1.165.743.082.749-.66.749-.959,0-.213-.654-20.834-.654-20.834Z" transform="translate(-118.333 -115.276)"/><path class="e" d="M162.6,165.1c.22,2.086,2.9,23.8,2.956,24.04.066.41.063.979.753,1.166.7.159.851-.462.849-.825-.011-.285-1.359-23.219-1.359-23.219Z" transform="translate(-109.765 -111.454)"/><path class="e" d="M136.056,173l-5.93-.9s4.767,17.91,4.96,18.42c.59,1.769,3.874,3.475,3.586,1.347-.181-1.351-2.616-18.87-2.616-18.87" transform="translate(-87.845 -116.181)"/><path class="e" d="M154.6,192.979c.732.149.987-.054,1-1.067,0-.306-1.8-21.493-1.8-21.493l-3.334-.154,3.129,21.072c.178.874.287,1.474,1,1.642" transform="translate(-101.578 -114.942)"/><path class="e" d="M199.247,201.182c.009.449.571.456.571.456s.526-.055.531-.42c-.007-.164.6-20.407.6-20.407l-2.291.475s.59,19.74.588,19.9" transform="translate(-134.11 -122.061)"/><path class="e" d="M248.5,175.88s-2.337,18.9-2.361,19.16a.285.285,0,0,0,.367.3c.272-.107.286-.523.307-.6.044-.186,2.581-18.739,2.581-18.739Z" transform="translate(-166.159 -118.733)"/><path class="e" d="M240.094,176.177s-2.132,19.82-2.139,20.033a.344.344,0,0,0,.489.374c.21-.082.355-.175.44-.677.042-.2,2.589-19.462,2.589-19.462Z" transform="translate(-160.637 -118.933)"/><path class="e" d="M253.593,178.342s-2.41,17.44-2.427,17.6c-.017.14.114.239.265.141a.831.831,0,0,0,.228-.422c.062-.317,2.814-17.219,2.814-17.219Z" transform="translate(-169.555 -120.395)"/><path class="e" d="M231.123,172.169s-1.763,21.51-1.8,21.978.259.582.593.521c.313-.065.379-.211.463-.656.03-.206,2.136-21.425,2.136-21.425Z" transform="translate(-154.812 -116.228)"/><path class="e" d="M209.906,198.033a.5.5,0,0,0,.6.494.51.51,0,0,0,.489-.541c.012-.313.858-21.594.858-21.594l-1.6.788s-.35,20.482-.35,20.852" transform="translate(-141.703 -119.079)"/><path class="e" d="M220.149,194.945a.533.533,0,0,0,.542.515.614.614,0,0,0,.471-.462c.062-.343,1.185-22.615,1.185-22.615l-1.3.343s-.894,21.989-.9,22.218" transform="translate(-148.618 -116.373)"/><path class="f" d="M106.706,87.444c1.017,1.017,4.06,4.54,7.725,3.22,3.643-1.334,4.59-3.054,7.645-2.7,2.979.353,3.362,3.622,9.335,3.781,4.626.114,6.475-3.09,10.124-3.1,2.692-.013,4.308,3.266,8.335,3.477,2.687.14,3.735-1.584,5.508-3.28,1.157-1.081,3.111-4.639,5.593-6.885,1.577-1.426,2.956-6.772,2.3-8.389s-1.291-4.88-5.058-4.021c3.513-7.157-9.618-15.531-16.278-9.4,1.02-3.7-.854-5.872-1.624-8.082a6.65,6.65,0,0,0-5.917-3.888c-5.4-.044-6.9,1.805-8.535,7.6-6.112-.948-12.337,3.51-12.3,7.461a3.233,3.233,0,0,0-3.237-.831,12.065,12.065,0,0,0-2.454,1.818c-.234.47.782,4.908-.3,4.958a14.769,14.769,0,0,1-2.895.075c-1.326-.119-3.176,1.686-3.716,2.775-.537,1.073-3.438,2.1-.869,5.75,2.59,3.634,6.615,9.663,6.615,9.663" transform="translate(-66.863 -32.524)"/><path class="e" d="M98.14,109.81c-2.373,1.609-4.172,5.355-2.519,9.76,1.356,3.644,4.532,6.606,8.893,8.331a1.326,1.326,0,0,0,1.718-.73,1.308,1.308,0,0,0-.74-1.716c-3.682-1.461-6.312-3.886-7.414-6.825-1.154-3.081-.062-5.554,1.533-6.645a2.8,2.8,0,0,1,3.6.185,62.762,62.762,0,0,1,4.449,7.226,1.318,1.318,0,1,0,2.318-1.256c-.041-.076-3.72-6.761-5-7.919a5.387,5.387,0,0,0-6.842-.409" transform="translate(-64.119 -73.434)"/><path class="e" d="M121.705,90.04c-3.891,2.871-1.782,8.7-1.692,8.933a1.325,1.325,0,0,0,2.48-.929c-.022-.039-1.511-4.184.773-5.88a2.768,2.768,0,0,1,2.791-.663c1.45.664,3.2,3.657,3.745,10.1a1.319,1.319,0,1,0,2.628-.217c-.554-6.722-2.393-10.979-5.292-12.282-1.18-.529-3.079-.805-5.434.935" transform="translate(-80.579 -59.881)"/><path class="e" d="M153.564,66.414c-.027.4-.551,10.055,3.665,14.548a6.863,6.863,0,0,0,5.168,2.2,8.233,8.233,0,0,0,6.345-2.426c2.767-3.019,2.356-8.025,2.115-11.019-.06-.623-.092-1.184-.1-1.555a1.315,1.315,0,0,0-1.335-1.317A1.345,1.345,0,0,0,168.11,68.2c.013.48.061,1.056.121,1.749.226,2.718.561,6.837-1.435,9.006a5.631,5.631,0,0,1-4.4,1.58,4.189,4.189,0,0,1-3.234-1.391c-2.872-3.045-3.11-10.112-2.971-12.579a1.316,1.316,0,1,0-2.627-.152" transform="translate(-103.644 -43.992)"/><path class="e" d="M183.925,47.675a9.39,9.39,0,0,0-7.026,3.393c-2.1,2.569-2.906,6.383-2.254,10.73a1.325,1.325,0,0,0,2.619-.4c-.55-3.594.046-6.678,1.676-8.667a6.778,6.778,0,0,1,5.126-2.431c3.084-.158,5.452.966,6.656,3.2,1.814,3.31.8,8.3-2.608,13.035a1.317,1.317,0,0,0,2.138,1.538c4.014-5.558,5.078-11.615,2.791-15.836-1.7-3.124-5.019-4.785-9.118-4.559" transform="translate(-117.75 -32.17)"/><path class="e" d="M260.087,67.235l-6.28,20.544a1.314,1.314,0,0,0,2.51.775L262.6,68a1.315,1.315,0,1,0-2.517-.763" transform="translate(-171.295 -44.76)"/><path class="e" d="M256.267,114.465a1.285,1.285,0,0,0,.791,1.679,1.314,1.314,0,0,0,1.687-.773,4.935,4.935,0,0,1,4.949-2.968,4.221,4.221,0,0,1,3.544,2.106,5.807,5.807,0,0,1-.046,5.48,26.033,26.033,0,0,1-7.536,8,1.311,1.311,0,1,0,1.406,2.214,28.209,28.209,0,0,0,8.487-9.045,8.418,8.418,0,0,0-.038-7.985,6.886,6.886,0,0,0-5.691-3.406,7.539,7.539,0,0,0-7.551,4.7" transform="translate(-172.943 -74.092)"/><path class="e" d="M225.9,99.989a10.684,10.684,0,0,0-1.167,12.387,8.778,8.778,0,0,0,8.016,4.557,9.231,9.231,0,0,0,7.988-4.578,1.3,1.3,0,0,0-.573-1.76,1.318,1.318,0,0,0-1.782.569,6.661,6.661,0,0,1-5.689,3.135,6.116,6.116,0,0,1-5.661-3.217,7.985,7.985,0,0,1,.827-9.311c1.582-1.748,3.6-2.316,5.42-1.524A1.292,1.292,0,0,0,235,99.587a1.307,1.307,0,0,0-.663-1.736c-2.859-1.263-6.079-.44-8.44,2.138" transform="translate(-150.732 -65.663)"/><path class="e" d="M154.351,255.928a1.649,1.649,0,0,0,.353.9c.018.018-.009.008-.04,0a1.751,1.751,0,1,0,.009,3.5,1.648,1.648,0,0,0,1.489-1.135,1.645,1.645,0,0,0,1.5,1.123,1.754,1.754,0,0,0,1.744-1.751,1.734,1.734,0,0,0-1.74-1.738c-.092-.013-.184.008-.147-.016a1.583,1.583,0,0,0,.341-.9,1.756,1.756,0,0,0-3.511.014m10.3,2.622a1.758,1.758,0,1,0,1.751-1.762,1.774,1.774,0,0,0-1.751,1.762m11.119,1.918h0c-2.762.05-4.26,2.636-4.265,5.035a5.35,5.35,0,0,0,.537,2.287,3.289,3.289,0,0,1-1.669-.594,6.364,6.364,0,0,1-1.2-3.058c.014.039-.316-1.522-.316-1.522l-.049-.189a1.657,1.657,0,0,0-1.846-1.228,1.414,1.414,0,0,0-1,.682,1.622,1.622,0,0,0-.148,1.128,20,20,0,0,1,.473,4.152c-.075.234-.4.467-1.008.656a1.581,1.581,0,0,1-1.441-.286c-.376-.342-1.068-1.437-1.493-4.969a1.525,1.525,0,0,0-1.735-1.346,1.583,1.583,0,0,0-1.384,1.734c.027.4.969,4.558.269,4.888-.1.055-.365.216-.529.018-.483-.52-.713-2.807-.977-5.237a1.525,1.525,0,0,0-1.72-1.392c-1.323.164-1.4,1.715-1.4,1.715s.65,4.548.125,4.887c-.137.1-.405.229-.572.034a2.833,2.833,0,0,1-.457-1.317l-.51-3.917a1.544,1.544,0,0,0-1.73-1.392,1.577,1.577,0,0,0-1.392,1.716c.049.514.534,4.106.534,4.106a4.428,4.428,0,0,1-.716,3.289,3.218,3.218,0,0,1-2.452.807,3.266,3.266,0,0,1-2.568-.938c-.78-.859-1.059-2.308-.829-4.33a1.445,1.445,0,0,0-1.357-1.752,1.628,1.628,0,0,0-1.749,1.369c-.348,2.891.2,5.232,1.576,6.795a6.429,6.429,0,0,0,4.935,2,6.235,6.235,0,0,0,4.761-1.825,6.022,6.022,0,0,0,.957-1.607,3.614,3.614,0,0,0,2.211.087,3.235,3.235,0,0,0,1.322-.757,3.379,3.379,0,0,0,3.422.665,2.776,2.776,0,0,0,1.345-1.018,4.7,4.7,0,0,0,4.474.975,5.281,5.281,0,0,0,2.077-1.321c2.216,2.054,7.626,1.843,9.546.814a5.156,5.156,0,0,0,2.454-4.185,5.658,5.658,0,0,0-1.414-4.4,4.147,4.147,0,0,0-3.088-1.255m.2,6.858c-.89-.009-1.316-1.207-1.324-1.823,0-.916.473-1.886,1.154-1.9a1.129,1.129,0,0,1,.819.317,2.693,2.693,0,0,1,.522,1.842c-.116,1.4-.716,1.573-1.172,1.566" transform="translate(-95.247 -171.586)"/><path class="f" d="M157.649,258.462a1.008,1.008,0,1,0-1.014-1,1.009,1.009,0,0,0,1.014,1m10.286,2.618a1.007,1.007,0,1,0,0-2.014,1.024,1.024,0,0,0-1.013,1.02,1.008,1.008,0,0,0,1.013.994m-9.757-.972a1,1,0,0,0,1.015,1,.988.988,0,0,0,1-1,1,1,0,0,0-1.012-1.01,1.026,1.026,0,0,0-1.008,1.016m21.678,3.675a3.392,3.392,0,0,0-2.538-1.03c-2.3.036-3.552,2.224-3.548,4.288a4.389,4.389,0,0,0,1.251,3.16c-1.5-.022-3.036-.294-3.642-.952a6.961,6.961,0,0,1-1.395-3.426c-.077-.464-.347-1.633-.378-1.708a.815.815,0,0,0-.965-.647.849.849,0,0,0-.668.98c.141.625.258,1.19.381,1.7a19.172,19.172,0,0,1,.187,2.291l.008.229c.021.435-.631,1.11-1.533,1.408a2.3,2.3,0,0,1-2.152-.451c-.818-.745-1.382-2.567-1.721-5.414a.834.834,0,0,0-.923-.737.847.847,0,0,0-.731.924c.141,1.162.451,2.537.5,2.88.255,1.936-.282,2.526-.515,2.688a1.186,1.186,0,0,1-1.551-.071c-.595-.664-.81-2.491-1.156-5.67a.8.8,0,0,0-.906-.728.831.831,0,0,0-.733.913c.148,1.389.377,2.761.408,3.408.075,1.228-.22,1.91-.6,2.161a1.194,1.194,0,0,1-1.542-.062,3.719,3.719,0,0,1-.637-1.683l0-.015c-.19-.955-.335-2.253-.53-3.977a.827.827,0,0,0-.9-.74.844.844,0,0,0-.731.915c.177,1.743.317,3.02.52,4.04.132,1.8-.163,3.12-.9,3.926a3.862,3.862,0,0,1-3,1.047,3.921,3.921,0,0,1-3.118-1.189c-.914-1.026-1.265-2.723-1-4.906a.83.83,0,1,0-1.648-.193c-.323,2.651.167,4.8,1.408,6.2a5.652,5.652,0,0,0,4.367,1.759,5.5,5.5,0,0,0,4.214-1.6,4.869,4.869,0,0,0,1.11-2.13,2.869,2.869,0,0,0,3.293.007,2.914,2.914,0,0,0,.642-.668,2.455,2.455,0,0,0,.212.3,2.816,2.816,0,0,0,3.678.347,2.436,2.436,0,0,0,.855-1.1,3.188,3.188,0,0,0,.521.581,3.954,3.954,0,0,0,3.757.815,4.36,4.36,0,0,0,2.313-1.686,3.148,3.148,0,0,0,.348.418c1.829,1.922,7.119,1.724,8.846.809a4.442,4.442,0,0,0,2.043-3.564,4.922,4.922,0,0,0-1.207-3.846m-2.175,5.8c-1.553.086-2.252-1.7-2.258-2.545v-.008c.006-1.272.715-2.614,1.9-2.627a1.744,1.744,0,0,1,1.348.536,3.141,3.141,0,0,1,.74,2.35c-.033.9-.676,2.22-1.73,2.294M156.2,261.12a1.007,1.007,0,0,0,.007-2.015,1.019,1.019,0,0,0-1.011,1.023.986.986,0,0,0,1,.992" transform="translate(-96.778 -173.122)"/><path class="e" d="M156.47,326.572c-.049.444-.079.984-.088,1.61a1.666,1.666,0,0,1,.534-.478,1.484,1.484,0,0,1,.69-.148,1.666,1.666,0,0,1,1.324.566,2.279,2.279,0,0,1,.471,1.527,2.465,2.465,0,0,1-.5,1.679,1.718,1.718,0,0,1-1.4.625,1.287,1.287,0,0,1-1.218-.635c.02.17.033.253.033.253,0,.216-.1.317-.289.309-.191.011-.3-.138-.293-.406,0-.074,0-.136,0-.187,0-.112,0-.248,0-.37l.051-.662v-.83l-.008-2.189a1.491,1.491,0,0,0-.065-.426.206.206,0,0,0-.185-.106c-.023,0-.093.021-.209.037a.756.756,0,0,1-.161.025c-.192,0-.291-.1-.278-.277-.01-.158.1-.264.328-.262l.168.008.189.023c.081.011.161,0,.216.014a1.352,1.352,0,0,0,.251-.022,2.237,2.237,0,0,1,.249-.024c.125,0,.189.075.189.233Zm-.041,2.39a7.335,7.335,0,0,0-.043.739,3.077,3.077,0,0,0,.139,1.106.937.937,0,0,0,.969.6,1.134,1.134,0,0,0,.928-.448,2.039,2.039,0,0,0,.324-1.207,2.084,2.084,0,0,0-.314-1.219,1.051,1.051,0,0,0-.87-.438,1.121,1.121,0,0,0-.723.255,1.2,1.2,0,0,0-.41.613" transform="translate(-104.555 -220.227)"/><path class="g" d="M156.47,326.572c-.049.444-.079.984-.088,1.61a1.666,1.666,0,0,1,.534-.478,1.484,1.484,0,0,1,.69-.148,1.666,1.666,0,0,1,1.324.566,2.279,2.279,0,0,1,.471,1.527,2.465,2.465,0,0,1-.5,1.679,1.718,1.718,0,0,1-1.4.625,1.287,1.287,0,0,1-1.218-.635c.02.17.033.253.033.253,0,.216-.1.317-.289.309-.191.011-.3-.138-.293-.406,0-.074,0-.136,0-.187,0-.112,0-.248,0-.37l.051-.662v-.83l-.008-2.189a1.491,1.491,0,0,0-.065-.426.206.206,0,0,0-.185-.106c-.023,0-.093.021-.209.037a.756.756,0,0,1-.161.025c-.192,0-.291-.1-.278-.277-.01-.158.1-.264.328-.262l.168.008.189.023c.081.011.161,0,.216.014a1.352,1.352,0,0,0,.251-.022,2.237,2.237,0,0,1,.249-.024c.125,0,.189.075.189.233Zm-.041,2.39a7.335,7.335,0,0,0-.043.739,3.077,3.077,0,0,0,.139,1.106.937.937,0,0,0,.969.6,1.134,1.134,0,0,0,.928-.448,2.039,2.039,0,0,0,.324-1.207,2.084,2.084,0,0,0-.314-1.219,1.051,1.051,0,0,0-.87-.438,1.121,1.121,0,0,0-.723.255A1.2,1.2,0,0,0,156.429,328.962Z" transform="translate(-104.555 -220.227)"/><path class="e" d="M176.716,334.62a.754.754,0,0,1-.833-.576,1.477,1.477,0,0,1-1.321.616,1.643,1.643,0,0,1-1.084-.326,1.1,1.1,0,0,1-.388-.871,1.057,1.057,0,0,1,.586-1.008,1.874,1.874,0,0,1,.379-.168c.1-.012.321-.057.634-.105a2.621,2.621,0,0,0,.919-.2.5.5,0,0,0,.2-.49.641.641,0,0,0-.23-.528,1.042,1.042,0,0,0-.665-.189,1.1,1.1,0,0,0-.682.215c-.086.064-.126.1-.128.163,0,.013.026.062.079.088a.326.326,0,0,1,.111.277.283.283,0,0,1-.115.264.4.4,0,0,1-.3.119.473.473,0,0,1-.356-.154.426.426,0,0,1-.136-.357.9.9,0,0,1,.441-.792,1.876,1.876,0,0,1,1.112-.332c1.007-.007,1.5.47,1.507,1.425l0,1.675a4.185,4.185,0,0,0,.013.454c.027.193.122.287.295.294s.272-.179.277-.523l-.008-.405c0-.178.086-.266.26-.259s.27.129.279.393l-.01.043v.466a.735.735,0,0,1-.837.792m-.92-1.633v-.59a1.125,1.125,0,0,1-.385.231,2.714,2.714,0,0,1-.709.119c-.632.063-.944.308-.936.694a.658.658,0,0,0,.221.5.952.952,0,0,0,.621.181,1.231,1.231,0,0,0,.863-.308,1.148,1.148,0,0,0,.327-.828" transform="translate(-116.85 -222.955)"/><path class="g" d="M176.716,334.62a.754.754,0,0,1-.833-.576,1.477,1.477,0,0,1-1.321.616,1.643,1.643,0,0,1-1.084-.326,1.1,1.1,0,0,1-.388-.871,1.057,1.057,0,0,1,.586-1.008,1.874,1.874,0,0,1,.379-.168c.1-.012.321-.057.634-.105a2.621,2.621,0,0,0,.919-.2.5.5,0,0,0,.2-.49.641.641,0,0,0-.23-.528,1.042,1.042,0,0,0-.665-.189,1.1,1.1,0,0,0-.682.215c-.086.064-.126.1-.128.163,0,.013.026.062.079.088a.326.326,0,0,1,.111.277.283.283,0,0,1-.115.264.4.4,0,0,1-.3.119.473.473,0,0,1-.356-.154.426.426,0,0,1-.136-.357.9.9,0,0,1,.441-.792,1.876,1.876,0,0,1,1.112-.332c1.007-.007,1.5.47,1.507,1.425l0,1.675a4.185,4.185,0,0,0,.013.454c.027.193.122.287.295.294s.272-.179.277-.523l-.008-.405c0-.178.086-.266.26-.259s.27.129.279.393l-.01.043v.466A.735.735,0,0,1,176.716,334.62Zm-.92-1.633v-.59a1.125,1.125,0,0,1-.385.231,2.714,2.714,0,0,1-.709.119c-.632.063-.944.308-.936.694a.658.658,0,0,0,.221.5.952.952,0,0,0,.621.181,1.231,1.231,0,0,0,.863-.308A1.148,1.148,0,0,0,175.8,332.987Z" transform="translate(-116.85 -222.955)"/><path class="e" d="M190.914,329.617l1.412-1.335a.18.18,0,0,0,.073-.148c0-.047-.026-.078-.112-.076-.048,0-.135.024-.227.019a1.2,1.2,0,0,1-.244.047c-.189,0-.284-.083-.286-.269s.121-.275.363-.28c.057,0,.146,0,.225,0a5.133,5.133,0,0,0,.871.071c.11,0,.2,0,.277,0l.331-.057a.968.968,0,0,1,.185-.009c.265-.009.414.079.417.274a.25.25,0,0,1-.278.278.749.749,0,0,1-.18-.031c-.1-.011-.156-.016-.2-.023a.667.667,0,0,0-.424.211l-.858.8c-.066.058-.1.1-.1.141,0,.022.02.064.075.119l1.053,1.359c.255.344.458.519.573.528a.947.947,0,0,1,.136-.031c.064-.006.117-.016.154-.021.194,0,.293.081.293.265s-.12.275-.371.279c-.107,0-.251-.022-.442-.036a4.377,4.377,0,0,0-.451-.028c-.092.013-.218.011-.38.042a3.165,3.165,0,0,1-.37.018c-.2,0-.317-.079-.313-.269s.106-.273.3-.268a.9.9,0,0,0,.126,0c.1.026.168.044.2.051s.061-.018.062-.062l-.005-.022,0-.005-.1-.125-.1-.159-.834-1.09c-.044-.07-.1-.109-.125-.108a.618.618,0,0,0-.128.075l-.611.552.007.191a2.089,2.089,0,0,0,.016.447c.025.192.107.293.236.288a.832.832,0,0,0,.14-.017.767.767,0,0,1,.152-.015.25.25,0,0,1,.28.27c0,.181-.106.273-.318.273-.1,0-.238-.009-.423-.026a2.538,2.538,0,0,0-.441-.035c-.123.009-.259.013-.429.029-.212.026-.34.031-.422.038-.219,0-.312-.085-.32-.261a.273.273,0,0,1,.306-.284c.044,0,.1.011.169.011.088.018.141.044.187.029.123.017.2-.109.21-.311l.023-.319-.006-3.334a3.841,3.841,0,0,0-.052-.555.187.187,0,0,0-.181-.135c-.031.013-.074.012-.161.042-.082.006-.139.028-.223.041-.194-.008-.276-.09-.277-.268s.113-.284.322-.277a1.625,1.625,0,0,1,.237,0c.124.026.22.018.26.031a1.534,1.534,0,0,0,.192-.029c.091,0,.146-.005.189,0l.056,0c.185,0,.269.1.258.345Z" transform="translate(-127.85 -220.143)"/><path class="g" d="M190.914,329.617l1.412-1.335a.18.18,0,0,0,.073-.148c0-.047-.026-.078-.112-.076-.048,0-.135.024-.227.019a1.2,1.2,0,0,1-.244.047c-.189,0-.284-.083-.286-.269s.121-.275.363-.28c.057,0,.146,0,.225,0a5.133,5.133,0,0,0,.871.071c.11,0,.2,0,.277,0l.331-.057a.968.968,0,0,1,.185-.009c.265-.009.414.079.417.274a.25.25,0,0,1-.278.278.749.749,0,0,1-.18-.031c-.1-.011-.156-.016-.2-.023a.667.667,0,0,0-.424.211l-.858.8c-.066.058-.1.1-.1.141,0,.022.02.064.075.119l1.053,1.359c.255.344.458.519.573.528a.947.947,0,0,1,.136-.031c.064-.006.117-.016.154-.021.194,0,.293.081.293.265s-.12.275-.371.279c-.107,0-.251-.022-.442-.036a4.377,4.377,0,0,0-.451-.028c-.092.013-.218.011-.38.042a3.165,3.165,0,0,1-.37.018c-.2,0-.317-.079-.313-.269s.106-.273.3-.268a.9.9,0,0,0,.126,0c.1.026.168.044.2.051s.061-.018.062-.062l-.005-.022,0-.005-.1-.125-.1-.159-.834-1.09c-.044-.07-.1-.109-.125-.108a.618.618,0,0,0-.128.075l-.611.552.007.191a2.089,2.089,0,0,0,.016.447c.025.192.107.293.236.288a.832.832,0,0,0,.14-.017.767.767,0,0,1,.152-.015.25.25,0,0,1,.28.27c0,.181-.106.273-.318.273-.1,0-.238-.009-.423-.026a2.538,2.538,0,0,0-.441-.035c-.123.009-.259.013-.429.029-.212.026-.34.031-.422.038-.219,0-.312-.085-.32-.261a.273.273,0,0,1,.306-.284c.044,0,.1.011.169.011.088.018.141.044.187.029.123.017.2-.109.21-.311l.023-.319-.006-3.334a3.841,3.841,0,0,0-.052-.555.187.187,0,0,0-.181-.135c-.031.013-.074.012-.161.042-.082.006-.139.028-.223.041-.194-.008-.276-.09-.277-.268s.113-.284.322-.277a1.625,1.625,0,0,1,.237,0c.124.026.22.018.26.031a1.534,1.534,0,0,0,.192-.029c.091,0,.146-.005.189,0l.056,0c.185,0,.269.1.258.345Z" transform="translate(-127.85 -220.143)"/><path class="e" d="M211.691,331.961a.907.907,0,0,1-.04.392c-.017.043-.105.062-.242.066l-2.608.026a.313.313,0,0,0-.145.022.276.276,0,0,0-.029.085,1.46,1.46,0,0,0,.373,1.032,1.193,1.193,0,0,0,.916.423,1.315,1.315,0,0,0,.665-.207.88.88,0,0,0,.388-.5l.08-.247a.253.253,0,0,1,.266-.191c.209,0,.31.1.308.317a1.164,1.164,0,0,1-.537.942,1.954,1.954,0,0,1-1.241.416,1.751,1.751,0,0,1-1.383-.554,2.66,2.66,0,0,1,.039-3.2,1.8,1.8,0,0,1,1.408-.635,1.684,1.684,0,0,1,1.28.512,1.748,1.748,0,0,1,.5,1.3m-2.974-.2c0,.085.055.117.177.114l1.958,0c.117,0,.183-.046.187-.121a1.127,1.127,0,0,0-1.116-1.073,1.24,1.24,0,0,0-.84.342.94.94,0,0,0-.365.735" transform="translate(-140.38 -222.874)"/><path class="g" d="M211.691,331.961a.907.907,0,0,1-.04.392c-.017.043-.105.062-.242.066l-2.608.026a.313.313,0,0,0-.145.022.276.276,0,0,0-.029.085,1.46,1.46,0,0,0,.373,1.032,1.193,1.193,0,0,0,.916.423,1.315,1.315,0,0,0,.665-.207.88.88,0,0,0,.388-.5l.08-.247a.253.253,0,0,1,.266-.191c.209,0,.31.1.308.317a1.164,1.164,0,0,1-.537.942,1.954,1.954,0,0,1-1.241.416,1.751,1.751,0,0,1-1.383-.554,2.66,2.66,0,0,1,.039-3.2,1.8,1.8,0,0,1,1.408-.635,1.684,1.684,0,0,1,1.28.512A1.748,1.748,0,0,1,211.691,331.961Zm-2.974-.2c0,.085.055.117.177.114l1.958,0c.117,0,.183-.046.187-.121a1.127,1.127,0,0,0-1.116-1.073,1.24,1.24,0,0,0-.84.342A.94.94,0,0,0,208.717,331.763Z" transform="translate(-140.38 -222.874)"/><path class="e" d="M224.779,330.455l-.016.231a1.462,1.462,0,0,1,2.092-.287,1.043,1.043,0,0,1,.355.83.838.838,0,0,1-.175.584.535.535,0,0,1-.48.233.418.418,0,0,1-.317-.105.338.338,0,0,1-.13-.279.309.309,0,0,1,.091-.236.332.332,0,0,1,.224-.1.256.256,0,0,1,.11.022.376.376,0,0,0,.06-.178.493.493,0,0,0-.215-.4.8.8,0,0,0-.527-.165.831.831,0,0,0-.856.591,3.249,3.249,0,0,0-.127,1.05v.554c0,.352,0,.569,0,.608.026.318.132.475.271.473a1.027,1.027,0,0,0,.221-.036,1.37,1.37,0,0,1,.149-.008.236.236,0,0,1,.271.244c0,.189-.11.3-.328.3h-.047a3.338,3.338,0,0,1-.369-.027c-.166-.015-.291-.026-.378-.024a3.181,3.181,0,0,0-.517.02l-.462.04c-.221-.008-.339-.1-.324-.3-.016-.173.094-.248.3-.261a.424.424,0,0,0,.132.017l.121.016a.4.4,0,0,0,.118.019c.145.013.213-.121.222-.367l.006-.424-.037-1.878c-.009-.316-.095-.473-.237-.472a.75.75,0,0,0-.186.023.657.657,0,0,1-.179.024.249.249,0,0,1-.275-.275c.006-.178.116-.279.352-.273a1.443,1.443,0,0,1,.25.01,1.333,1.333,0,0,0,.241.022.886.886,0,0,0,.216-.021.582.582,0,0,1,.149-.018c.154,0,.218.069.227.227" transform="translate(-150.774 -222.832)"/><path class="g" d="M224.779,330.455l-.016.231a1.462,1.462,0,0,1,2.092-.287,1.043,1.043,0,0,1,.355.83.838.838,0,0,1-.175.584.535.535,0,0,1-.48.233.418.418,0,0,1-.317-.105.338.338,0,0,1-.13-.279.309.309,0,0,1,.091-.236.332.332,0,0,1,.224-.1.256.256,0,0,1,.11.022.376.376,0,0,0,.06-.178.493.493,0,0,0-.215-.4.8.8,0,0,0-.527-.165.831.831,0,0,0-.856.591,3.249,3.249,0,0,0-.127,1.05v.554c0,.352,0,.569,0,.608.026.318.132.475.271.473a1.027,1.027,0,0,0,.221-.036,1.37,1.37,0,0,1,.149-.008.236.236,0,0,1,.271.244c0,.189-.11.3-.328.3h-.047a3.338,3.338,0,0,1-.369-.027c-.166-.015-.291-.026-.378-.024a3.181,3.181,0,0,0-.517.02l-.462.04c-.221-.008-.339-.1-.324-.3-.016-.173.094-.248.3-.261a.424.424,0,0,0,.132.017l.121.016a.4.4,0,0,0,.118.019c.145.013.213-.121.222-.367l.006-.424-.037-1.878c-.009-.316-.095-.473-.237-.472a.75.75,0,0,0-.186.023.657.657,0,0,1-.179.024.249.249,0,0,1-.275-.275c.006-.178.116-.279.352-.273a1.443,1.443,0,0,1,.25.01,1.333,1.333,0,0,0,.241.022.886.886,0,0,0,.216-.021.582.582,0,0,1,.149-.018C224.706,330.224,224.77,330.3,224.779,330.455Z" transform="translate(-150.774 -222.832)"/><path class="e" d="M239.769,331.245l.937,2.775,1-2.748a.732.732,0,0,0,.052-.17c-.012-.107-.058-.153-.187-.143a1.115,1.115,0,0,0-.161,0,1.232,1.232,0,0,1-.167.036c-.184-.016-.276-.091-.273-.265,0-.2.121-.292.355-.287a.915.915,0,0,1,.166.017l.3.034a1.24,1.24,0,0,0,.244.024,2.892,2.892,0,0,0,.407-.042c.179-.024.313-.031.413-.037.237,0,.351.095.343.272s-.081.27-.251.269a.319.319,0,0,1-.128-.016,1.421,1.421,0,0,1-.145-.029c-.107.006-.221.141-.321.427l-1.124,2.812a6.5,6.5,0,0,1-.691,1.35,1.729,1.729,0,0,1-1.409.722,1.267,1.267,0,0,1-.843-.268.674.674,0,0,1-.339-.6.546.546,0,0,1,.151-.423.488.488,0,0,1,.379-.149.5.5,0,0,1,.321.1.317.317,0,0,1,.113.279.287.287,0,0,1-.231.324c.081.143.243.191.471.189a1.118,1.118,0,0,0,.778-.323.961.961,0,0,0,.359-.741,2.339,2.339,0,0,0-.235-.744l-.911-2.311-.083-.259c-.115-.247-.215-.357-.342-.359a1.078,1.078,0,0,0-.165.019.858.858,0,0,1-.18.023c-.182,0-.274-.089-.274-.264s.123-.291.374-.278c.079,0,.158-.011.185-.009l.322.058a.371.371,0,0,1,.079,0c.035,0,.071.008.1.01a5.291,5.291,0,0,0,.63-.048,3.324,3.324,0,0,0,.335-.026c.245.005.354.1.35.27s-.1.277-.317.273a.468.468,0,0,1-.15-.018.338.338,0,0,0-.155,0c-.07,0-.127.031-.112.1a.487.487,0,0,0,.033.183" transform="translate(-160.63 -223.07)"/><path class="g" d="M239.769,331.245l.937,2.775,1-2.748a.732.732,0,0,0,.052-.17c-.012-.107-.058-.153-.187-.143a1.115,1.115,0,0,0-.161,0,1.232,1.232,0,0,1-.167.036c-.184-.016-.276-.091-.273-.265,0-.2.121-.292.355-.287a.915.915,0,0,1,.166.017l.3.034a1.24,1.24,0,0,0,.244.024,2.892,2.892,0,0,0,.407-.042c.179-.024.313-.031.413-.037.237,0,.351.095.343.272s-.081.27-.251.269a.319.319,0,0,1-.128-.016,1.421,1.421,0,0,1-.145-.029c-.107.006-.221.141-.321.427l-1.124,2.812a6.5,6.5,0,0,1-.691,1.35,1.729,1.729,0,0,1-1.409.722,1.267,1.267,0,0,1-.843-.268.674.674,0,0,1-.339-.6.546.546,0,0,1,.151-.423.488.488,0,0,1,.379-.149.5.5,0,0,1,.321.1.317.317,0,0,1,.113.279.287.287,0,0,1-.231.324c.081.143.243.191.471.189a1.118,1.118,0,0,0,.778-.323.961.961,0,0,0,.359-.741,2.339,2.339,0,0,0-.235-.744l-.911-2.311-.083-.259c-.115-.247-.215-.357-.342-.359a1.078,1.078,0,0,0-.165.019.858.858,0,0,1-.18.023c-.182,0-.274-.089-.274-.264s.123-.291.374-.278c.079,0,.158-.011.185-.009l.322.058a.371.371,0,0,1,.079,0c.035,0,.071.008.1.01a5.291,5.291,0,0,0,.63-.048,3.324,3.324,0,0,0,.335-.026c.245.005.354.1.35.27s-.1.277-.317.273a.468.468,0,0,1-.15-.018.338.338,0,0,0-.155,0c-.07,0-.127.031-.112.1A.487.487,0,0,0,239.769,331.245Z" transform="translate(-160.63 -223.07)"/></g></g></g></svg>