<svg xmlns="http://www.w3.org/2000/svg" width="37.999" height="33.951" viewBox="0 0 37.999 33.951"><defs><style>.a{fill:#44c868;}.b{fill:#7ee5f2;}.c{fill:#4ce166;}.d{fill:#a8eefc;}.e{fill:#ffdb56;}.f{fill:#ffbb24;}.g{fill:#ff4a4a;}.h{fill:#e7343f;}</style></defs><g transform="translate(0 -27.272)"><path class="a" d="M131.76,215.559l9.221,4.14V203.2l-7.943-4.14Z" transform="translate(-121.981 -159.035)"/><path class="b" d="M132.444,302.387l8.537,12.975-9.221-4.14Z" transform="translate(-121.981 -254.697)"/><path class="c" d="M16.736,215.559,7.515,219.7,10.5,203.239l7.514-4.183Z" transform="translate(-6.957 -159.035)"/><path class="d" d="M9.067,306.8l8.353-4.415-.684,8.835-9.221,4.14Z" transform="translate(-6.957 -254.697)"/><path class="a" d="M364.305,215.559l9.221,4.14-2.985-16.461-7.514-4.183Z" transform="translate(-336.085 -159.035)"/><path class="b" d="M368.127,248.211l9.2,10.688-2.066-11.393-1.139-.634Z" transform="translate(-340.806 -203.303)"/><path class="c" d="M265.226,215.559l-9.221,4.14V203.2l7.943-4.14Z" transform="translate(-237.005 -159.035)"/><path class="e" d="M28.432,267.656l8.353-4.415.243-3.138-7.99,4.211Z" transform="translate(-26.322 -215.55)"/><g transform="translate(10.463 41.567)"><path class="f" d="M149.519,261.289l-8.3-1.187-.243,3.138,8.537,12.975V271.5l-5.094-8.028,5.1.61Z" transform="translate(-140.98 -257.117)"/><path class="f" d="M365.488,223.224l6-1.338-3.6-2-2.61.61Z" transform="translate(-348.63 -219.883)"/></g><path class="e" d="M264.657,234.749l-.324-4.178h0l-.191-2.466-8.107,3.562v2.79l5.3-2.3Z" transform="translate(-237.033 -185.928)"/><path class="f" d="M368.43,268.82l9.818,11.844-.919-5.068-9.2-10.688Z" transform="translate(-340.806 -219.999)"/><path class="g" d="M166.123,34.787a7.244,7.244,0,0,0-7.244,7.244c0,6.092,7.244,11.7,7.244,11.7s7.244-5.606,7.244-11.7A7.244,7.244,0,0,0,166.123,34.787Zm0,10.133a2.889,2.889,0,1,1,2.889-2.889A2.889,2.889,0,0,1,166.123,44.92Z" transform="translate(-147.088 -6.957)"/><path class="h" d="M243.964,34.787a7.307,7.307,0,0,0-1,.07,7.245,7.245,0,0,1,6.24,7.175c0,4.667-4.251,9.049-6.24,10.843.607.548,1,.855,1,.855s7.244-5.606,7.244-11.7A7.244,7.244,0,0,0,243.964,34.787Z" transform="translate(-224.928 -6.957)"/><path class="e" d="M256.005,413.642l3.178,3.291-3.178,1.427Z" transform="translate(-237.005 -357.695)"/><path d="M37.882,61.006,37.89,61a.557.557,0,0,0,.044-.071c0-.007.006-.014.01-.021a.572.572,0,0,0,.023-.055c0-.009.006-.019.009-.029s.009-.035.013-.053,0-.021.005-.031a.566.566,0,0,0,0-.057c0-.009,0-.018,0-.027a.552.552,0,0,0-.008-.086L35.764,48.29a.558.558,0,1,0-1.1.2l.941,5.19L28.351,45.25l4.881-1.089.723.4.314,1.73a.558.558,0,0,0,1.1-.2l-.361-1.99a.558.558,0,0,0-.277-.388h0l-7.515-4.183h0a.553.553,0,0,0-.066-.031l-.021-.007-.047-.015-.027-.005-.043-.007-.029,0h-.072l-.041,0-.03.005-.04.009-.03.009-.038.015-.029.013-.013.006-1.274.664a10.846,10.846,0,0,0,1.427-5.117,7.8,7.8,0,1,0-15.6,0,10.879,10.879,0,0,0,1.454,5.168l-1.373-.716-.013-.006-.028-.013-.039-.015-.029-.009-.04-.01-.03-.005-.041,0h-.072l-.031,0-.041.007-.029.006-.045.014-.024.008a.561.561,0,0,0-.066.031h0L3.272,43.717a.557.557,0,0,0-.277.388h0L.878,55.774h0a.558.558,0,0,0,1.1.2l.635-3.5,7.218-3.816-.581,7.5L1.3,59.722l.28-1.544a.558.558,0,1,0-1.1-.2L.009,60.565a.558.558,0,0,0,.777.608l8.993-4.038,8.989,4.036h0l.016.006.025.01.025.008.016,0,.021.005.035.007.017,0h.011l.056,0H19a.556.556,0,0,0,.067,0h.008l.013,0,.052-.011.014,0h0l0,0a.553.553,0,0,0,.064-.024l8.992-4.038h0l8.993,4.038.026.01.026.01.035.01.022.006.043.007.015,0a.55.55,0,0,0,.059,0h0a.564.564,0,0,0,.081-.007l.019,0a.544.544,0,0,0,.079-.02l0,0a.516.516,0,0,0,.051-.021l.014-.008.041-.024c.014-.008.027-.017.04-.026l.014-.009c.01-.008.018-.016.028-.025l.022-.02A.542.542,0,0,0,37.882,61.006ZM22.306,58.569l-2.749-2.847V48.9l4.659-2.028,2.871,2.242.547,7.067ZM19.558,59.8V57.327l1.667,1.727ZM17.37,46.069c.464.431.84.75,1.072.941v.89l-4.47-.535a.558.558,0,0,0-.537.853l5.007,7.891V58.8l-7.408-11.26.091-1.172.092-1.183Zm4.213-.854L26.614,43l.356,4.6-2.329-1.819a.558.558,0,0,0-.566-.072L19.56,47.678v-.611A26.214,26.214,0,0,0,21.583,45.214Zm6.432,1.43-.006-.083L36,55.845l.512,2.826L28.166,48.6Zm-.436-5.631.608.339-.572.134Zm-12.572,7.6,3.436.411v5Zm-4.113.746,6.588,10.013-7.116-3.2ZM28.316,50.53l7.165,8.643-6.729-3.022Zm3.451-7.185-3.939.879L27.7,42.611l1.934-.452,2.13,1.186Zm-5.315-2.439.071.92L23.38,43.207q.468-.58.873-1.154ZM19.036,28.387a6.694,6.694,0,0,1,6.686,6.686c0,5-5.278,9.789-6.686,10.977-1.408-1.188-6.686-5.974-6.686-10.977A6.694,6.694,0,0,1,19.036,28.387Zm-4.05,15.178c.357.427.714.823,1.056,1.186L11.3,44.074l.245-3.168,2.312,1.205Q14.373,42.833,14.986,43.566Zm-4.565-2.552-.16,2.069L10.174,44.2l-6.7,3.533.575-3.172ZM2.864,51.076l.344-1.9.009-.049,6.855-3.613L9.931,47.34Z" transform="translate(0)"/><path d="M216.936,89.4a3.451,3.451,0,0,0-3.447-3.447.558.558,0,1,0,0,1.115,2.331,2.331,0,1,1-1.663.7.558.558,0,0,0-.8-.782,3.447,3.447,0,1,0,5.906,2.416Z" transform="translate(-194.453 -54.323)"/></g></svg>