<svg height="33.951" viewBox="0 0 37.999 33.951" width="37.999" xmlns="http://www.w3.org/2000/svg"><g transform="translate(0 -27.272)"><path d="m131.76 215.559 9.221 4.14v-16.499l-7.943-4.14z" fill="#44c868" transform="translate(-121.981 -159.035)"/><path d="m132.444 302.387 8.537 12.975-9.221-4.14z" fill="#7ee5f2" transform="translate(-121.981 -254.697)"/><path d="m16.736 215.559-9.221 4.141 2.985-16.461 7.514-4.183z" fill="#4ce166" transform="translate(-6.957 -159.035)"/><path d="m9.067 306.8 8.353-4.415-.684 8.835-9.221 4.14z" fill="#a8eefc" transform="translate(-6.957 -254.697)"/><path d="m364.305 215.559 9.221 4.14-2.985-16.461-7.514-4.183z" fill="#44c868" transform="translate(-336.085 -159.035)"/><path d="m368.127 248.211 9.2 10.688-2.066-11.393-1.139-.634z" fill="#7ee5f2" transform="translate(-340.806 -203.303)"/><path d="m265.226 215.559-9.221 4.14v-16.499l7.943-4.14z" fill="#4ce166" transform="translate(-237.005 -159.035)"/><path d="m28.432 267.656 8.353-4.415.243-3.138-7.99 4.211z" fill="#ffdb56" transform="translate(-26.322 -215.55)"/><path d="m149.519 261.289-8.3-1.187-.243 3.138 8.537 12.975v-4.715l-5.094-8.028 5.1.61z" fill="#ffbb24" transform="translate(-130.517 -215.55)"/><path d="m365.488 223.224 6-1.338-3.6-2-2.61.61z" fill="#ffbb24" transform="translate(-338.167 -178.316)"/><path d="m264.657 234.749-.324-4.178-.191-2.466-8.107 3.562v2.79l5.3-2.3z" fill="#ffdb56" transform="translate(-237.033 -185.928)"/><path d="m368.43 268.82 9.818 11.844-.919-5.068-9.2-10.688z" fill="#ffbb24" transform="translate(-340.806 -219.999)"/><path d="m166.123 34.787a7.244 7.244 0 0 0 -7.244 7.244c0 6.092 7.244 11.7 7.244 11.7s7.244-5.606 7.244-11.7a7.244 7.244 0 0 0 -7.244-7.244zm0 10.133a2.889 2.889 0 1 1 2.889-2.889 2.889 2.889 0 0 1 -2.889 2.889z" fill="#ff4a4a" transform="translate(-147.088 -6.957)"/><path d="m243.964 34.787a7.307 7.307 0 0 0 -1 .07 7.245 7.245 0 0 1 6.24 7.175c0 4.667-4.251 9.049-6.24 10.843.607.548 1 .855 1 .855s7.244-5.606 7.244-11.7a7.244 7.244 0 0 0 -7.244-7.243z" fill="#e7343f" transform="translate(-224.928 -6.957)"/><path d="m256.005 413.642 3.178 3.291-3.178 1.427z" fill="#ffdb56" transform="translate(-237.005 -357.695)"/><path d="m37.882 61.006.008-.006a.557.557 0 0 0 .044-.071c0-.007.006-.014.01-.021a.572.572 0 0 0 .023-.055c0-.009.006-.019.009-.029s.009-.035.013-.053 0-.021.005-.031a.566.566 0 0 0 0-.057c0-.009 0-.018 0-.027a.552.552 0 0 0 -.008-.086l-2.222-12.28a.558.558 0 1 0 -1.1.2l.941 5.19-7.254-8.43 4.881-1.089.723.4.314 1.73a.558.558 0 0 0 1.1-.2l-.361-1.99a.558.558 0 0 0 -.277-.388l-7.515-4.183a.553.553 0 0 0 -.066-.031l-.021-.007-.047-.015-.027-.005-.043-.007h-.029-.072-.041l-.03.005-.04.009-.03.009-.038.015-.029.013-.013.006-1.274.664a10.846 10.846 0 0 0 1.427-5.117 7.8 7.8 0 1 0 -15.6 0 10.879 10.879 0 0 0 1.454 5.168l-1.373-.716-.013-.006-.028-.013-.039-.015-.029-.009-.04-.01-.03-.005h-.041-.072-.031l-.041.007-.029.006-.045.014-.024.008a.561.561 0 0 0 -.066.031l-7.524 4.188a.557.557 0 0 0 -.277.388l-2.117 11.669a.558.558 0 0 0 1.1.2l.635-3.5 7.218-3.816-.581 7.5-7.95 3.564.28-1.544a.558.558 0 1 0 -1.1-.2l-.471 2.587a.558.558 0 0 0 .777.608l8.993-4.038 8.989 4.036.016.006.025.01.025.008h.016l.021.005.035.007h.017.011.056.01a.556.556 0 0 0 .067 0h.008.013l.052-.011h.014a.553.553 0 0 0 .064-.024l8.992-4.038 8.993 4.038.026.01.026.01.035.01.022.006.043.007h.015a.55.55 0 0 0 .059 0 .564.564 0 0 0 .081-.007h.019a.544.544 0 0 0 .079-.02.516.516 0 0 0 .051-.021l.014-.008.041-.024c.014-.008.027-.017.04-.026l.014-.009c.01-.008.018-.016.028-.025l.022-.02a.542.542 0 0 0 .064-.049zm-15.576-2.437-2.749-2.847v-6.822l4.659-2.028 2.871 2.242.547 7.067zm-2.748 1.231v-2.473l1.667 1.727zm-2.188-13.731c.464.431.84.75 1.072.941v.89l-4.47-.535a.558.558 0 0 0 -.537.853l5.007 7.891v2.691l-7.408-11.26.091-1.172.092-1.183zm4.213-.854 5.031-2.215.356 4.6-2.329-1.819a.558.558 0 0 0 -.566-.072l-4.515 1.969v-.611a26.214 26.214 0 0 0 2.023-1.853zm6.432 1.43-.006-.083 7.991 9.283.512 2.826-8.346-10.071zm-.436-5.631.608.339-.572.134zm-12.572 7.6 3.436.411v5zm-4.113.746 6.588 10.013-7.116-3.2zm17.422 1.17 7.165 8.643-6.729-3.022zm3.451-7.185-3.939.879-.128-1.613 1.934-.452 2.13 1.186zm-5.315-2.439.071.92-3.143 1.381q.468-.58.873-1.154zm-7.416-12.519a6.694 6.694 0 0 1 6.686 6.686c0 5-5.278 9.789-6.686 10.977-1.408-1.188-6.686-5.974-6.686-10.977a6.694 6.694 0 0 1 6.686-6.686zm-4.05 15.178c.357.427.714.823 1.056 1.186l-4.742-.677.245-3.168 2.312 1.205q.516.722 1.129 1.455zm-4.565-2.552-.16 2.069-.087 1.118-6.7 3.533.575-3.172zm-7.557 10.063.344-1.9.009-.049 6.855-3.613-.141 1.826z"/><path d="m216.936 89.4a3.451 3.451 0 0 0 -3.447-3.447.558.558 0 1 0 0 1.115 2.331 2.331 0 1 1 -1.663.7.558.558 0 0 0 -.8-.782 3.447 3.447 0 1 0 5.906 2.416z" transform="translate(-194.453 -54.323)"/></g></svg>