<svg height="22.42" viewBox="0 0 22.617 22.42" width="22.617" xmlns="http://www.w3.org/2000/svg"><path d="m20.463 7.477h-3a2.965 2.965 0 0 0 .789-2.016s0-.119 0-.152a2.714 2.714 0 0 0 -1.4-2.288 2.775 2.775 0 0 0 -2.743 0l-1.364.77a4.758 4.758 0 0 0 -1.938 2.063 4.758 4.758 0 0 0 -1.937-2.064l-1.364-.77a2.775 2.775 0 0 0 -2.743 0 2.714 2.714 0 0 0 -1.4 2.288v.152a2.965 2.965 0 0 0 .789 2.016h-3a1.155 1.155 0 0 0 -1.152 1.154v2.737a1.155 1.155 0 0 0 1.153 1.153h.528v10.38a1.155 1.155 0 0 0 1.154 1.15h15.947a1.155 1.155 0 0 0 1.153-1.15v-10.379h.528a1.155 1.155 0 0 0 1.153-1.153v-2.738a1.155 1.155 0 0 0 -1.153-1.153zm-7.245-2.85 1.364-.77a1.821 1.821 0 0 1 1.8 0 1.76 1.76 0 0 1 .909 1.483v.12a2.019 2.019 0 0 1 -2.016 2.016h-3.959a3.8 3.8 0 0 1 1.903-2.85zm-8.894.713a1.76 1.76 0 0 1 .909-1.483 1.821 1.821 0 0 1 1.8 0l1.364.77a3.8 3.8 0 0 1 1.9 2.85h-3.957a2.019 2.019 0 0 1 -2.017-2.017s.001-.096.001-.12zm4.322 8.642s0 .961 0 .961v8.146h-5.811a.193.193 0 0 1 -.193-.192v-10.376h6v1.461zm0-2.422h-7.493a.193.193 0 0 1 -.193-.193v-2.737a.193.193 0 0 1 .193-.193h7.494zm3.362 11.529h-2.4v-14.651h2.4zm6.965-.192a.193.193 0 0 1 -.193.193h-5.81v-10.569h6v10.379zm1.681-11.529a.193.193 0 0 1 -.193.193h-7.491v-3.123h7.493a.193.193 0 0 1 .193.193v2.737z" fill="none" stroke="#b4b4b4" transform="translate(.5 -2.129)"/></svg>