<svg xmlns="http://www.w3.org/2000/svg" width="17.214" height="21.178" viewBox="0 0 17.214 21.178"><defs><style>.a,.b{fill:none;stroke-linejoin:round;}.b{stroke:#b4b4b4;stroke-width:2px;}.c,.d{stroke:none;}.d{fill:#b4b4b4;}</style></defs><g transform="translate(2 2)"><g class="a" transform="translate(-207.687 -421.528)"><path class="c" d="M208.755,438.706l1.869-.812,1.869.812,1.869-.812,1.869.812,1.869-.812,1.869.812.93-.4V421.528H207.687v16.715Z"/><path class="d" d="M 219.9711151123047 438.7064819335938 L 220.9015960693359 438.3021545410156 L 220.9015960693359 421.5281372070313 L 207.6874847412109 421.5281372070313 L 207.6874847412109 438.2428283691406 L 208.7545166015625 438.7064819335938 L 210.6239471435547 437.8941345214844 L 212.4933776855469 438.7064819335938 L 214.3628082275391 437.8941345214844 L 216.2322540283203 438.7064819335938 L 218.1016845703125 437.8941345214844 L 219.9711151123047 438.7064819335938 M 219.9711151123047 440.7064819335938 C 219.6996765136719 440.7064819335938 219.4282531738281 440.6512451171875 219.1740570068359 440.5408020019531 L 218.1016693115234 440.0747985839844 L 217.0293273925781 440.540771484375 C 216.7751159667969 440.6512451171875 216.5036773681641 440.7064819335938 216.2322387695313 440.7064819335938 C 215.9608154296875 440.7064819335938 215.6893920898438 440.6512451171875 215.4351806640625 440.5408020019531 L 214.3628082275391 440.0747985839844 L 213.2904663085938 440.540771484375 C 213.0362548828125 440.6512451171875 212.7648162841797 440.7064819335938 212.4933776855469 440.7064819335938 C 212.2219390869141 440.7064819335938 211.9505157470703 440.6512451171875 211.6963043212891 440.540771484375 L 210.6239471435547 440.0747985839844 L 209.5516052246094 440.540771484375 C 209.2973937988281 440.6512451171875 209.0259552001953 440.7064819335938 208.7545166015625 440.7064819335938 C 208.4830932617188 440.7064819335938 208.2116851806641 440.6512451171875 207.9574737548828 440.5408020019531 L 206.8904266357422 440.0771484375 C 206.1600036621094 439.759765625 205.6874847412109 439.0392456054688 205.6874847412109 438.2428283691406 L 205.6874847412109 421.5281372070313 C 205.6874847412109 420.423583984375 206.5829162597656 419.5281372070313 207.6874847412109 419.5281372070313 L 220.9015960693359 419.5281372070313 C 222.0061645507813 419.5281372070313 222.9015960693359 420.423583984375 222.9015960693359 421.5281372070313 L 222.9015960693359 438.3021545410156 C 222.9015960693359 439.0985717773438 222.4290924072266 439.819091796875 221.6986541748047 440.136474609375 L 220.7681732177734 440.5408020019531 C 220.5139770507813 440.6512451171875 220.2425384521484 440.7064819335938 219.9711151123047 440.7064819335938 Z"/></g><line class="b" x2="10.44" transform="translate(1.387 2.602)"/><line class="b" x2="10.44" transform="translate(1.387 5.793)"/><line class="b" x2="10.44" transform="translate(1.387 8.988)"/><line class="b" x2="4.681" transform="translate(1.387 12.184)"/></g></svg>