<svg height="21.178" viewBox="0 0 17.214 21.178" width="17.214" xmlns="http://www.w3.org/2000/svg"><g fill="none" stroke-linejoin="round"><g transform="translate(-205.687 -419.528)"><path d="m208.755 438.706 1.869-.812 1.869.812 1.869-.812 1.869.812 1.869-.812 1.869.812.93-.4v-16.778h-13.212v16.715z"/><path d="m219.97111511 438.70648193.93048096-.40432739v-16.77401733h-13.21411133v16.71469116l1.06703186.46365356 1.86943054-.81234741 1.86943055.81234741 1.86943054-.81234741 1.8694458.81234741 1.86943054-.81234741zm0 2c-.2714386 0-.54286194-.05523681-.7970581-.16567993l-1.0723877-.46600342-1.07234192.4659729c-.25421142.11047364-.52565002.16571045-.79708862.16571045-.27142334 0-.54284668-.05523681-.79705811-.16567993l-1.07237243-.46600342-1.07234192.4659729c-.25421143.11047364-.52565003.16571045-.79708862.16571045-.2714386 0-.54286194-.05523681-.79707337-.16571045l-1.07235718-.4659729-1.07234192.4659729c-.25421142.11047364-.52565002.16571045-.79708862.16571045-.27142334 0-.54283142-.05523681-.79704285-.16567993l-1.06704711-.46365356c-.73042298-.31738281-1.2029419-1.03790283-1.2029419-1.83432007v-16.71469116c0-1.10455323.89543152-2 2-2h13.21411133c1.10456848 0 2 .89544677 2 2v16.77401733c0 .79641724-.47250366 1.51693726-1.2029419 1.83432007l-.93048095.40432739c-.25419617.11044312-.52563477.16567993-.79705811.16567993z" fill="#b4b4b4"/></g><g stroke="#b4b4b4" stroke-width="2"><path d="m3.387 4.602h10.44"/><path d="m3.387 7.793h10.44"/><path d="m3.387 10.988h10.44"/><path d="m3.387 14.184h4.681"/></g></g></svg>