<svg height="23.225" viewBox="0 0 18 23.225" width="18" xmlns="http://www.w3.org/2000/svg"><g fill="none" stroke-linejoin="round"><g transform="translate(-177.475 -420.258)"><path d="m186.476 432.892h-7l3.5 8.59h7l3.5-8.59z"/><path d="m179.47576904 432.89248657 3.49987793 8.59005738h6.9998169l3.49987793-8.59005738h-6.99978638zm0-2h6.99978638 6.99978638c.66590881 0 1.28814697.3314209 1.65971374.88403321.37156677.5526123.44372559 1.25390625.19245911 1.87060546l-3.49987793 8.59005738c-.30682373.75305176-1.03901672 1.24536133-1.85217285 1.24536133h-6.9998169c-.81315613 0-1.54534912-.49230957-1.85217285-1.24536133l-3.49987793-8.59005738c-.25126648-.61669921-.17910766-1.31799316.19245911-1.87060546.37156677-.55261231.99380493-.88403321 1.65971374-.88403321z" fill="#b4b4b4"/></g><g transform="translate(-178.068 -419.476)"><path d="m180.068 430.326a3.389 3.389 0 0 1 1.75-2.95s0-2.949 2.625-2.949c0 0 0-2.95 2.625-2.95s2.625 2.95 2.625 2.95 2.6-.092 2.6 3.073a3.31 3.31 0 0 1 1.778 2.827z"/><path d="m194.06796265 430.32626343c0-1.96697998-1.77754212-2.82727051-1.77754212-2.82727051 0-2.99050903-2.31840515-3.07281494-2.57397461-3.07281494-.01490783 0-.0228424.00027466-.0228424.00027466s0-2.95037842-2.62516785-2.95037842c-2.62518311 0-2.62518311 2.95037842-2.62518311 2.95037842-2.62515258 0-2.62515258 2.94937133-2.62515258 2.94937133-1.75012207.78164673-1.75012207 2.95043946-1.75012207 2.95043946zm0 2h-13.99998474c-1.10456849 0-2-.89541626-2-2 0-1.06768799.42523193-2.93850708 1.89198303-4.13601685.0743103-.33679199.18731689-.71636963.35905456-1.10229492.50305176-1.13034058 1.34136963-1.93856812 2.39968872-2.35037231.06079102-.19448853.13491822-.39593506.22537232-.59927369.7527008-1.69189453 2.25598144-2.66223144 4.12435913-2.66223144 1.86837768 0 3.37164307.97033691 4.12434387 2.66223144.09533692.21432496.17256165.42663575.23512268.63076783.24592591.0994873.50102234.2272644.75532532.39126587.66563415.42929077 1.71275329 1.38137817 2.01982117 3.23364257.92823791.79354859 1.86491394 2.1116333 1.86491394 3.9322815 0 1.10458374-.89543152 2-2 2z" fill="#b4b4b4"/></g></g></svg>