<svg xmlns="http://www.w3.org/2000/svg" width="45.998" height="60.178" viewBox="0 0 45.998 60.178"><defs><style>.a{opacity:0.4;}.b{fill:none;stroke-linejoin:round;}.c,.d{stroke:none;}</style></defs><g transform="translate(-32.271 -722.822)"><g class="a" transform="translate(34.298 725.822)"><g class="b" transform="translate(-177.501 -403.029)"><path class="c" d="M198.474,432.893h-19l9.5,23.314h19l9.5-23.314Z"/><path class="d" d="M 179.4757690429688 432.8925170898438 L 188.9749450683594 456.2069702148438 L 207.9735107421875 456.2069702148438 L 217.47265625 432.8925170898438 L 198.4742126464844 432.8925170898438 L 179.4757690429688 432.8925170898438 M 179.4757690429688 428.8925170898438 L 198.4742126464844 428.8925170898438 L 217.47265625 428.8925170898438 C 218.8044738769531 428.8925170898438 220.0489501953125 429.5553588867188 220.7920684814453 430.6605834960938 C 221.5352020263672 431.7658081054688 221.6795196533203 433.1684265136719 221.1769866943359 434.4017944335938 L 211.6778411865234 457.7162475585938 C 211.064208984375 459.2223205566406 209.5998077392578 460.2069702148438 207.9735107421875 460.2069702148438 L 188.9749450683594 460.2069702148438 C 187.3486480712891 460.2069702148438 185.8842468261719 459.2223205566406 185.2706146240234 457.7162475585938 L 175.7714385986328 434.4017944335938 C 175.2689056396484 433.1684265136719 175.4132232666016 431.7658386230469 176.1563568115234 430.6606140136719 C 176.8994750976563 429.5553894042969 178.1439514160156 428.8925170898438 179.4757690429688 428.8925170898438 Z"/></g><g class="b" transform="translate(-178.095 -420.476)"><path class="c" d="M180.068,445.5s0-5.886,4.75-8.008c0,0,0-8,7.125-8,0,0,0-8.008,7.125-8.008s7.125,8.008,7.125,8.008,7.048-.251,7.048,8.339c0,0,4.824,2.335,4.824,7.674Z"/><path class="d" d="M 218.0659790039063 445.49658203125 C 218.0659790039063 440.157958984375 213.2415161132813 437.822998046875 213.2415161132813 437.822998046875 C 213.2415161132813 429.7068786621094 206.9496917724609 429.4830017089844 206.25537109375 429.4830017089844 C 206.2148284912109 429.4830017089844 206.193359375 429.4837646484375 206.193359375 429.4837646484375 C 206.193359375 429.4837646484375 206.193359375 421.47607421875 199.0682678222656 421.47607421875 C 191.943115234375 421.47607421875 191.943115234375 429.4837646484375 191.943115234375 429.4837646484375 C 184.8180541992188 429.4837646484375 184.8180541992188 437.4886474609375 184.8180541992188 437.4886474609375 C 180.0679931640625 439.6102294921875 180.0679931640625 445.49658203125 180.0679931640625 445.49658203125 L 218.0659790039063 445.49658203125 M 218.0659790039063 449.49658203125 L 180.0679931640625 449.49658203125 C 177.8588562011719 449.49658203125 176.0679931640625 447.7057189941406 176.0679931640625 445.49658203125 C 176.0679931640625 445.1398315429688 176.1069946289063 443.2460632324219 176.8768310546875 440.9942626953125 C 177.7312469482422 438.4950256347656 179.1622772216797 436.48291015625 181.0721588134766 435.0688781738281 C 181.2487945556641 434.1241760253906 181.5478820800781 432.9976196289063 182.0542602539063 431.8598327636719 C 182.8522338867188 430.0668029785156 183.9866485595703 428.6110229492188 185.4260101318359 427.5329895019531 C 186.3368377685547 426.8507690429688 187.3426513671875 426.3372802734375 188.4356842041016 425.9949645996094 C 188.6125335693359 425.31640625 188.8527679443359 424.5875549316406 189.1791229248047 423.85400390625 C 189.9770050048828 422.0605773925781 191.111328125 420.6044616699219 192.5505981445313 419.526123046875 C 194.3661651611328 418.1658020019531 196.5590209960938 417.47607421875 199.0682678222656 417.47607421875 C 201.5774993896484 417.47607421875 203.7703399658203 418.1658325195313 205.5859222412109 419.526123046875 C 207.0251617431641 420.6044921875 208.1594848632813 422.0605773925781 208.9573516845703 423.85400390625 C 209.2968444824219 424.6170654296875 209.5431518554688 425.3751220703125 209.7218475341797 426.07666015625 C 210.5041046142578 426.3375854492188 211.3455505371094 426.7117919921875 212.1768646240234 427.2479553222656 C 213.7206420898438 428.24365234375 214.9399871826172 429.5932922363281 215.8010559082031 431.2593688964844 C 216.4617462158203 432.5377502441406 216.8973083496094 433.9876098632813 217.1033020019531 435.5886840820313 C 217.5561065673828 435.9454040527344 218.0449371337891 436.3748779296875 218.5334320068359 436.881591796875 C 220.8444519042969 439.2787170410156 222.0659790039063 442.2577514648438 222.0659790039063 445.49658203125 C 222.0659790039063 447.7057189941406 220.2751159667969 449.49658203125 218.0659790039063 449.49658203125 Z"/></g></g></g></svg>