<svg height="60.178" viewBox="0 0 45.998 60.178" width="45.998" xmlns="http://www.w3.org/2000/svg"><g fill="none" opacity=".4" stroke-linejoin="round"><g transform="translate(-175.474 -400.029)"><path d="m198.474 432.893h-19l9.5 23.314h19l9.5-23.314z"/><path d="m179.47576904 432.89251709 9.49917603 23.31445312h18.99856567l9.49914551-23.31445312h-18.9984436zm0-4h18.99844361 18.9984436c1.33181763 0 2.57629395.6628418 3.31941223 1.76806641.74313355 1.10522461.88745117 2.50784301.38491821 3.74121093l-9.4991455 23.31445313c-.61363221 1.506073-2.07803345 2.49072265-3.70433045 2.49072265h-18.99856567c-1.626297 0-3.09069824-.98464965-3.70433045-2.49072265l-9.49917602-23.31445313c-.50253296-1.23336792-.35821533-2.63595581.38491821-3.74118042.74311829-1.10522461 1.98759461-1.76809692 3.31941223-1.76809692z"/></g><g transform="translate(-176.068 -417.476)"><path d="m180.068 445.5s0-5.886 4.75-8.008c0 0 0-8 7.125-8 0 0 0-8.008 7.125-8.008s7.125 8.008 7.125 8.008 7.048-.251 7.048 8.339c0 0 4.824 2.335 4.824 7.674z"/><path d="m218.065979 445.49658203c0-5.33862305-4.82446289-7.67358398-4.82446289-7.67358398 0-8.11611939-6.29182434-8.33999634-6.98614502-8.33999634-.0405426 0-.06201171.00076294-.06201171.00076294s0-8.00769043-7.12509156-8.00769043c-7.12515259 0-7.12515259 8.00769043-7.12515259 8.00769043-7.12506103 0-7.12506103 8.00488281-7.12506103 8.00488281-4.75006104 2.12158203-4.75006104 8.00793457-4.75006104 8.00793457zm0 4h-37.99798584c-2.20913696 0-4-1.79086304-4-4 0-.35675049.03900147-2.2505188.80883789-4.50231933.8544159-2.49923707 2.28544617-4.51135254 4.19532776-5.92538453.17663575-.94470214.47572327-2.07125854.98210144-3.20904541.79797364-1.79302978 1.93238831-3.24880981 3.37174988-4.32684326.91082764-.68222046 1.91664124-1.19570923 3.00967407-1.5380249.17684937-.67855835.41708374-1.40740967.74343872-2.14096069.79788208-1.79342652 1.93220521-3.24954224 3.37147522-4.32788086 1.81556702-1.36032105 4.00842286-2.05004883 6.51766968-2.05004883 2.50923157 0 4.70207215.6897583 6.51765442 2.05004883 1.4392395 1.07836914 2.57356262 2.53445434 3.37142944 4.32788086.3394928.76306152.58580018 1.52111816.76449585 2.22265625.78225708.26092529 1.62370301.63513183 2.45501709 1.17129516 1.54377747.99569702 2.76312256 2.34533692 3.62419129 4.01141358.66069031 1.27838134 1.09625244 2.72824096 1.30224609 4.32931518.45280457.35671997.94163513.78619385 1.43013001 1.29290772 2.31101989 2.39712524 3.53254699 5.37615966 3.53254699 8.61499023 0 2.20913696-1.79086303 4-4 4z"/></g></g></svg>